#N canvas 52 23 1228 671 12;
#X obj 55 345 pix_data, f 21;
#X obj 127 372 unpack f f f;
#X floatatom 127 404 5 0 0 0 - - -;
#X floatatom 202 409 5 0 0 0 - - -;
#X floatatom 279 416 5 0 0 0 - - -;
#X obj 637 203 translateXYZ;
#X floatatom 664 111 5 0 0 0 - - -;
#X floatatom 691 179 5 0 0 0 - - -;
#X obj 637 336 circle;
#X obj 637 14 color 1 0 0;
#X obj 103 316 r image;
#X obj 664 86 expr ($f1*10) - 5;
#X obj 676 252 initbang;
#X obj 177 240 s \$0-xpos;
#X obj 691 133 r \$0-ypos;
#X obj 663 62 r \$0-xpos;
#X obj 127 605 throw~ audio;
#X obj 637 -12 gemhead;
#X obj 676 276 t b b;
#X floatatom 199 322 5 0 0 0 - - -;
#X obj 199 295 f \$1;
#X obj 279 334 s \$0-ypos;
#X obj 691 156 expr ($f1 * 8) - 4;
#X msg 676 308 0.05;
#X obj 228 603 throw~ audio;
#X obj 329 602 throw~ audio;
#X obj 127 505 * 1000;
#X obj 228 497 * 1000;
#X obj 329 498 * 1000;
#X obj 256 455 r range;
#X obj 153 209 r scanxPos;
#X obj 56 282 r getdata;
#X obj 128 533 phasor~;
#X obj 229 525 phasor~;
#X obj 329 526 phasor~;
#X connect 0 1 1 0;
#X connect 1 0 2 0;
#X connect 1 1 3 0;
#X connect 1 2 4 0;
#X connect 2 0 26 0;
#X connect 3 0 27 0;
#X connect 4 0 28 0;
#X connect 5 0 8 0;
#X connect 6 0 5 1;
#X connect 7 0 5 2;
#X connect 9 0 5 0;
#X connect 10 0 0 1;
#X connect 11 0 6 0;
#X connect 12 0 18 0;
#X connect 14 0 22 0;
#X connect 15 0 11 0;
#X connect 17 0 9 0;
#X connect 18 0 23 0;
#X connect 18 1 20 0;
#X connect 19 0 0 3;
#X connect 19 0 21 0;
#X connect 20 0 19 0;
#X connect 22 0 7 0;
#X connect 23 0 8 1;
#X connect 26 0 32 0;
#X connect 27 0 33 0;
#X connect 28 0 34 0;
#X connect 29 0 28 1;
#X connect 29 0 27 1;
#X connect 29 0 26 1;
#X connect 30 0 13 0;
#X connect 30 0 0 2;
#X connect 31 0 0 0;
#X connect 32 0 16 0;
#X connect 33 0 24 0;
#X connect 34 0 25 0;
