#N canvas 0 25 1440 847 12;
#X declare -lib Gem;
#N canvas 631 60 705 425 import-image 0;
#X obj 118 286 pix_texture;
#X obj 221 216 s image;
#X obj 117 355 rectangle 5 4;
#X obj 117 9 gemhead 10;
#X obj 117 242 pix_invert;
#X obj 54 227 tgl 15 0 empty empty empty 17 7 0 10 #fcfcfc #000000 #000000 0 1;
#X obj 54 206 inlet, f 7;
#X obj 117 98 pix_video;
#X msg 195 80 device 1;
#X obj 195 50 loadbang;
#X obj 117 148 pix_2grey;
#X obj 118 201 pix_contrast;
#X floatatom 158 181 5 0 0 0 - - - 0;
#X obj 205 163 inlet;
#X connect 0 0 2 0;
#X connect 3 0 7 0;
#X connect 4 0 0 0;
#X connect 4 0 1 0;
#X connect 5 0 4 0;
#X connect 6 0 5 0;
#X connect 7 0 10 0;
#X connect 8 0 7 0;
#X connect 9 0 8 0;
#X connect 10 0 11 0;
#X connect 11 0 4 0;
#X connect 12 0 11 1;
#X connect 13 0 12 0;
#X restore 50 78 pd import-image;
#X obj 400 465 catch~ audio;
#X obj 400 502 output~;
#X floatatom 50 267 10 0 0 0 - - - 0;
#X obj 50 248 hsl 128 15 510 12500 1 0 GUIrangeMax empty empty -2 -8 0 10 #fcfcfc #000000 #000000 0 1;
#X floatatom 50 314 10 0 0 0 - - - 0;
#X obj 50 295 hsl 128 15 120 500 1 0 GUIrangeMin empty empty -2 -8 0 10 #fcfcfc #000000 #000000 0 1;
#N canvas 690 145 532 451 ctrlReproduccion 0;
#X obj 235 40 inlet;
#X obj 396 40 inlet;
#X obj 235 77 tgl 15 0 empty empty empty 17 7 0 10 #fcfcfc #000000 #000000 0 1;
#X obj 108 306 line;
#X obj 30 92 sel 1;
#X floatatom 117 359 9 0 0 0 - - - 0;
#X obj 108 334 * 0.001;
#X obj 196 157 t b b;
#X msg 294 203 0;
#X msg 108 120 set 1000 \$1;
#X msg 108 234 1000 12828.5;
#X obj 108 96 r duration;
#X obj 108 419 s xpos;
#X obj 520 40 inlet;
#X obj 396 174 hsl 128 15 0 1 0 0 empty empty empty -2 -8 0 10 #fcfcfc #000000 #000000 0 1;
#X obj 396 128 random 100;
#X obj 396 151 * 0.01;
#X obj 396 104 metro 500;
#X obj 396 86 tgl 15 0 empty empty empty 17 7 0 10 #fcfcfc #000000 #000000 0 1;
#X obj 62 300 f;
#X obj 62 272 b;
#X obj 303 175 loadbang;
#X obj 396 399 line;
#X obj 294 40 inlet;
#X obj 196 354 sel 1;
#X obj 196 188 spigot;
#X obj 396 217 t f b;
#X obj 446 208 r interp;
#X obj 446 237 f;
#X connect 0 0 2 0;
#X connect 1 0 18 0;
#X connect 2 0 4 0;
#X connect 2 0 25 1;
#X connect 3 0 6 0;
#X connect 3 0 19 1;
#X connect 4 0 10 0;
#X connect 4 1 20 0;
#X connect 6 0 5 0;
#X connect 6 0 12 0;
#X connect 6 0 24 0;
#X connect 7 0 25 0;
#X connect 7 1 8 0;
#X connect 8 0 3 0;
#X connect 9 0 10 0;
#X connect 10 0 3 0;
#X connect 11 0 9 0;
#X connect 13 0 14 0;
#X connect 14 0 26 0;
#X connect 15 0 16 0;
#X connect 16 0 14 0;
#X connect 17 0 15 0;
#X connect 18 0 17 0;
#X connect 19 0 3 0;
#X connect 20 0 19 0;
#X connect 21 0 8 0;
#X connect 22 0 12 0;
#X connect 23 0 8 0;
#X connect 24 0 7 0;
#X connect 25 0 10 0;
#X connect 26 0 22 0;
#X connect 26 1 28 0;
#X connect 27 0 28 0;
#X connect 28 0 22 1;
#X restore 321 310 pd ctrlReproduccion;
#X obj 451 291 hsl 128 15 0 1 0 0 empty empty empty -2 -8 0 10 #fcfcfc #000000 #000000 0 1;
#X obj 321 290 tgl 15 0 empty empty empty 17 7 0 10 #fcfcfc #000000 #000000 0 1;
#X obj 407 290 tgl 15 0 empty empty empty 17 7 0 10 #fcfcfc #000000 #000000 0 1;
#X text 312 267 Scan;
#X text 488 265 Manual;
#X obj 364 290 bng 15 250 50 0 empty empty empty 17 7 0 10 #fcfcfc #000000 #000000;
#X text 351 267 Reset;
#X text 403 266 RND;
#N canvas 638 50 565 667 GUI 0;
#X obj 218 283 r GUIrangeMax;
#X obj 228 483 r GUIrangeMin;
#X obj 250 438 s rangeMax;
#X obj 260 640 s rangeMin;
#X obj 218 311 f;
#X obj 228 512 f;
#X obj 38 32 r GUIupdate;
#X obj 38 61 bng 15 250 50 0 empty empty empty 17 7 0 10 #fcfcfc #000000 #000000;
#X obj 219 120 f;
#X floatatom 258 225 5 0 0 0 - - - 0;
#X obj 219 61 r GUIduration;
#X obj 251 248 s duration;
#X obj 219 87 * 1000;
#X obj 376 143 gemwin;
#X msg 386 110 0 \, destroy;
#X obj 376 59 loadbang;
#X obj 251 201 line;
#X obj 265 146 r interp;
#X obj 265 176 f;
#X obj 219 146 t b f;
#X floatatom 257 414 5 0 0 0 - - - 0;
#X obj 250 390 line;
#X obj 264 335 r interp;
#X obj 264 365 f;
#X obj 218 335 t b f;
#X floatatom 267 615 5 0 0 0 - - - 0;
#X obj 260 591 line;
#X obj 274 536 r interp;
#X obj 274 566 f;
#X obj 228 536 t b f;
#X msg 376 84 reset \, dimen 480 360 \, create \, 1;
#X connect 0 0 4 0;
#X connect 1 0 5 0;
#X connect 4 0 24 0;
#X connect 5 0 29 0;
#X connect 6 0 7 0;
#X connect 7 0 4 0;
#X connect 7 0 5 0;
#X connect 7 0 8 0;
#X connect 8 0 19 0;
#X connect 10 0 12 0;
#X connect 12 0 8 0;
#X connect 14 0 13 0;
#X connect 15 0 30 0;
#X connect 16 0 11 0;
#X connect 16 0 9 0;
#X connect 17 0 18 0;
#X connect 18 0 16 1;
#X connect 19 0 18 0;
#X connect 19 1 16 0;
#X connect 21 0 20 0;
#X connect 21 0 2 0;
#X connect 22 0 23 0;
#X connect 23 0 21 1;
#X connect 24 0 23 0;
#X connect 24 1 21 0;
#X connect 26 0 25 0;
#X connect 26 0 3 0;
#X connect 27 0 28 0;
#X connect 28 0 26 1;
#X connect 29 0 28 0;
#X connect 29 1 26 0;
#X connect 30 0 13 0;
#X restore 50 525 pd GUI;
#X text 138 313 Hz Min;
#X text 138 267 Hz Max;
#X obj 370 206 hsl 128 15 0.1 300 1 1 GUIduration empty empty -2 -8 0 10 #fcfcfc #000000 #000000 7700 1;
#X floatatom 370 226 5 0 0 0 - - - 0;
#X text 410 226 Duration(sec);
#N canvas 764 122 519 465 scanPoints 0;
#X obj 98 167 until;
#X obj 98 388 s pd-subpatch;
#X obj 98 142 t f f b;
#X obj 98 82 bng 15 250 50 0 empty empty 2-create_scan_points 17 7 0 10 #fc0400 #000000 #000000;
#X floatatom 98 247 5 0 0 0 - - - 0;
#X obj 98 220 f;
#X obj 131 220 + 1;
#X text 130 106 nro de scan points;
#X msg 144 190 0;
#X obj 98 338 pack f f;
#X msg 98 363 obj 20 \$2 linear-scan-ALT \$1;
#X obj 200 318 expr ($f1 * 22 ) +10;
#X obj 98 276 expr ($f1/$f2) \; $f1;
#X text 203 389 creacion de los osciladores;
#X obj 98 26 loadbang;
#X msg 98 106 120;
#X obj 305 97 s pd-linear-Scan-Image-ALT.pd;
#X msg 305 73 obj 50 500 pd subpatch;
#X obj 98 53 t b b;
#X text 304 120 subpatch hosting de los osciladores;
#X connect 0 0 5 0;
#X connect 2 0 0 0;
#X connect 2 1 12 1;
#X connect 2 2 8 0;
#X connect 3 0 15 0;
#X connect 4 0 12 0;
#X connect 5 0 6 0;
#X connect 5 0 4 0;
#X connect 6 0 5 1;
#X connect 8 0 5 1;
#X connect 9 0 10 0;
#X connect 10 0 1 0;
#X connect 11 0 9 1;
#X connect 12 0 9 0;
#X connect 12 1 11 0;
#X connect 14 0 18 0;
#X connect 15 0 2 0;
#X connect 17 0 16 0;
#X connect 18 0 3 0;
#X connect 18 1 17 0;
#X restore 50 474 pd scanPoints;
#X obj 437 418 s interp;
#X msg 386 379 200;
#X msg 325 379 20;
#X msg 452 379 1000;
#X obj 50 54 tgl 15 0 empty empty invert 17 7 0 10 #fcfcfc #000000 #000000 0 1;
#X msg 419 379 750;
#X msg 492 379 2000;
#X msg 355 379 110;
#X obj 386 355 loadbang;
#N canvas 507 127 450 300 subpatch 0;
#X obj 20 10 linear-scan-ALT 0;
#X obj 20 32 linear-scan-ALT 0.00833333;
#X obj 20 54 linear-scan-ALT 0.0166667;
#X obj 20 76 linear-scan-ALT 0.025;
#X obj 20 98 linear-scan-ALT 0.0333333;
#X obj 20 120 linear-scan-ALT 0.0416667;
#X obj 20 142 linear-scan-ALT 0.05;
#X obj 20 164 linear-scan-ALT 0.0583333;
#X obj 20 186 linear-scan-ALT 0.0666667;
#X obj 20 208 linear-scan-ALT 0.075;
#X obj 20 230 linear-scan-ALT 0.0833333;
#X obj 20 252 linear-scan-ALT 0.0916667;
#X obj 20 274 linear-scan-ALT 0.1;
#X obj 20 296 linear-scan-ALT 0.108333;
#X obj 20 318 linear-scan-ALT 0.116667;
#X obj 20 340 linear-scan-ALT 0.125;
#X obj 20 362 linear-scan-ALT 0.133333;
#X obj 20 384 linear-scan-ALT 0.141667;
#X obj 20 406 linear-scan-ALT 0.15;
#X obj 20 428 linear-scan-ALT 0.158333;
#X obj 20 450 linear-scan-ALT 0.166667;
#X obj 20 472 linear-scan-ALT 0.175;
#X obj 20 494 linear-scan-ALT 0.183333;
#X obj 20 516 linear-scan-ALT 0.191667;
#X obj 20 538 linear-scan-ALT 0.2;
#X obj 20 560 linear-scan-ALT 0.208333;
#X obj 20 582 linear-scan-ALT 0.216667;
#X obj 20 604 linear-scan-ALT 0.225;
#X obj 20 626 linear-scan-ALT 0.233333;
#X obj 20 648 linear-scan-ALT 0.241667;
#X obj 20 670 linear-scan-ALT 0.25;
#X obj 20 692 linear-scan-ALT 0.258333;
#X obj 20 714 linear-scan-ALT 0.266667;
#X obj 20 736 linear-scan-ALT 0.275;
#X obj 20 758 linear-scan-ALT 0.283333;
#X obj 20 780 linear-scan-ALT 0.291667;
#X obj 20 802 linear-scan-ALT 0.3;
#X obj 20 824 linear-scan-ALT 0.308333;
#X obj 20 846 linear-scan-ALT 0.316667;
#X obj 20 868 linear-scan-ALT 0.325;
#X obj 20 890 linear-scan-ALT 0.333333;
#X obj 20 912 linear-scan-ALT 0.341667;
#X obj 20 934 linear-scan-ALT 0.35;
#X obj 20 956 linear-scan-ALT 0.358333;
#X obj 20 978 linear-scan-ALT 0.366667;
#X obj 20 1000 linear-scan-ALT 0.375;
#X obj 20 1022 linear-scan-ALT 0.383333;
#X obj 20 1044 linear-scan-ALT 0.391667;
#X obj 20 1066 linear-scan-ALT 0.4;
#X obj 20 1088 linear-scan-ALT 0.408333;
#X obj 20 1110 linear-scan-ALT 0.416667;
#X obj 20 1132 linear-scan-ALT 0.425;
#X obj 20 1154 linear-scan-ALT 0.433333;
#X obj 20 1176 linear-scan-ALT 0.441667;
#X obj 20 1198 linear-scan-ALT 0.45;
#X obj 20 1220 linear-scan-ALT 0.458333;
#X obj 20 1242 linear-scan-ALT 0.466667;
#X obj 20 1264 linear-scan-ALT 0.475;
#X obj 20 1286 linear-scan-ALT 0.483333;
#X obj 20 1308 linear-scan-ALT 0.491667;
#X obj 20 1330 linear-scan-ALT 0.5;
#X obj 20 1352 linear-scan-ALT 0.508333;
#X obj 20 1374 linear-scan-ALT 0.516667;
#X obj 20 1396 linear-scan-ALT 0.525;
#X obj 20 1418 linear-scan-ALT 0.533333;
#X obj 20 1440 linear-scan-ALT 0.541667;
#X obj 20 1462 linear-scan-ALT 0.55;
#X obj 20 1484 linear-scan-ALT 0.558333;
#X obj 20 1506 linear-scan-ALT 0.566667;
#X obj 20 1528 linear-scan-ALT 0.575;
#X obj 20 1550 linear-scan-ALT 0.583333;
#X obj 20 1572 linear-scan-ALT 0.591667;
#X obj 20 1594 linear-scan-ALT 0.6;
#X obj 20 1616 linear-scan-ALT 0.608333;
#X obj 20 1638 linear-scan-ALT 0.616667;
#X obj 20 1660 linear-scan-ALT 0.625;
#X obj 20 1682 linear-scan-ALT 0.633333;
#X obj 20 1704 linear-scan-ALT 0.641667;
#X obj 20 1726 linear-scan-ALT 0.65;
#X obj 20 1748 linear-scan-ALT 0.658333;
#X obj 20 1770 linear-scan-ALT 0.666667;
#X obj 20 1792 linear-scan-ALT 0.675;
#X obj 20 1814 linear-scan-ALT 0.683333;
#X obj 20 1836 linear-scan-ALT 0.691667;
#X obj 20 1858 linear-scan-ALT 0.7;
#X obj 20 1880 linear-scan-ALT 0.708333;
#X obj 20 1902 linear-scan-ALT 0.716667;
#X obj 20 1924 linear-scan-ALT 0.725;
#X obj 20 1946 linear-scan-ALT 0.733333;
#X obj 20 1968 linear-scan-ALT 0.741667;
#X obj 20 1990 linear-scan-ALT 0.75;
#X obj 20 2012 linear-scan-ALT 0.758333;
#X obj 20 2034 linear-scan-ALT 0.766667;
#X obj 20 2056 linear-scan-ALT 0.775;
#X obj 20 2078 linear-scan-ALT 0.783333;
#X obj 20 2100 linear-scan-ALT 0.791667;
#X obj 20 2122 linear-scan-ALT 0.8;
#X obj 20 2144 linear-scan-ALT 0.808333;
#X obj 20 2166 linear-scan-ALT 0.816667;
#X obj 20 2188 linear-scan-ALT 0.825;
#X obj 20 2210 linear-scan-ALT 0.833333;
#X obj 20 2232 linear-scan-ALT 0.841667;
#X obj 20 2254 linear-scan-ALT 0.85;
#X obj 20 2276 linear-scan-ALT 0.858333;
#X obj 20 2298 linear-scan-ALT 0.866667;
#X obj 20 2320 linear-scan-ALT 0.875;
#X obj 20 2342 linear-scan-ALT 0.883333;
#X obj 20 2364 linear-scan-ALT 0.891667;
#X obj 20 2386 linear-scan-ALT 0.9;
#X obj 20 2408 linear-scan-ALT 0.908333;
#X obj 20 2430 linear-scan-ALT 0.916667;
#X obj 20 2452 linear-scan-ALT 0.925;
#X obj 20 2474 linear-scan-ALT 0.933333;
#X obj 20 2496 linear-scan-ALT 0.941667;
#X obj 20 2518 linear-scan-ALT 0.95;
#X obj 20 2540 linear-scan-ALT 0.958333;
#X obj 20 2562 linear-scan-ALT 0.966667;
#X obj 20 2584 linear-scan-ALT 0.975;
#X obj 20 2606 linear-scan-ALT 0.983333;
#X obj 20 2628 linear-scan-ALT 0.991667;
#X obj 20 10 linear-scan-ALT 0;
#X obj 20 32 linear-scan-ALT 0.00833333;
#X obj 20 54 linear-scan-ALT 0.0166667;
#X obj 20 76 linear-scan-ALT 0.025;
#X obj 20 98 linear-scan-ALT 0.0333333;
#X obj 20 120 linear-scan-ALT 0.0416667;
#X obj 20 142 linear-scan-ALT 0.05;
#X obj 20 164 linear-scan-ALT 0.0583333;
#X obj 20 186 linear-scan-ALT 0.0666667;
#X obj 20 208 linear-scan-ALT 0.075;
#X obj 20 230 linear-scan-ALT 0.0833333;
#X obj 20 252 linear-scan-ALT 0.0916667;
#X obj 20 274 linear-scan-ALT 0.1;
#X obj 20 296 linear-scan-ALT 0.108333;
#X obj 20 318 linear-scan-ALT 0.116667;
#X obj 20 340 linear-scan-ALT 0.125;
#X obj 20 362 linear-scan-ALT 0.133333;
#X obj 20 384 linear-scan-ALT 0.141667;
#X obj 20 406 linear-scan-ALT 0.15;
#X obj 20 428 linear-scan-ALT 0.158333;
#X obj 20 450 linear-scan-ALT 0.166667;
#X obj 20 472 linear-scan-ALT 0.175;
#X obj 20 494 linear-scan-ALT 0.183333;
#X obj 20 516 linear-scan-ALT 0.191667;
#X obj 20 538 linear-scan-ALT 0.2;
#X obj 20 560 linear-scan-ALT 0.208333;
#X obj 20 582 linear-scan-ALT 0.216667;
#X obj 20 604 linear-scan-ALT 0.225;
#X obj 20 626 linear-scan-ALT 0.233333;
#X obj 20 648 linear-scan-ALT 0.241667;
#X obj 20 670 linear-scan-ALT 0.25;
#X obj 20 692 linear-scan-ALT 0.258333;
#X obj 20 714 linear-scan-ALT 0.266667;
#X obj 20 736 linear-scan-ALT 0.275;
#X obj 20 758 linear-scan-ALT 0.283333;
#X obj 20 780 linear-scan-ALT 0.291667;
#X obj 20 802 linear-scan-ALT 0.3;
#X obj 20 824 linear-scan-ALT 0.308333;
#X obj 20 846 linear-scan-ALT 0.316667;
#X obj 20 868 linear-scan-ALT 0.325;
#X obj 20 890 linear-scan-ALT 0.333333;
#X obj 20 912 linear-scan-ALT 0.341667;
#X obj 20 934 linear-scan-ALT 0.35;
#X obj 20 956 linear-scan-ALT 0.358333;
#X obj 20 978 linear-scan-ALT 0.366667;
#X obj 20 1000 linear-scan-ALT 0.375;
#X obj 20 1022 linear-scan-ALT 0.383333;
#X obj 20 1044 linear-scan-ALT 0.391667;
#X obj 20 1066 linear-scan-ALT 0.4;
#X obj 20 1088 linear-scan-ALT 0.408333;
#X obj 20 1110 linear-scan-ALT 0.416667;
#X obj 20 1132 linear-scan-ALT 0.425;
#X obj 20 1154 linear-scan-ALT 0.433333;
#X obj 20 1176 linear-scan-ALT 0.441667;
#X obj 20 1198 linear-scan-ALT 0.45;
#X obj 20 1220 linear-scan-ALT 0.458333;
#X obj 20 1242 linear-scan-ALT 0.466667;
#X obj 20 1264 linear-scan-ALT 0.475;
#X obj 20 1286 linear-scan-ALT 0.483333;
#X obj 20 1308 linear-scan-ALT 0.491667;
#X obj 20 1330 linear-scan-ALT 0.5;
#X obj 20 1352 linear-scan-ALT 0.508333;
#X obj 20 1374 linear-scan-ALT 0.516667;
#X obj 20 1396 linear-scan-ALT 0.525;
#X obj 20 1418 linear-scan-ALT 0.533333;
#X obj 20 1440 linear-scan-ALT 0.541667;
#X obj 20 1462 linear-scan-ALT 0.55;
#X obj 20 1484 linear-scan-ALT 0.558333;
#X obj 20 1506 linear-scan-ALT 0.566667;
#X obj 20 1528 linear-scan-ALT 0.575;
#X obj 20 1550 linear-scan-ALT 0.583333;
#X obj 20 1572 linear-scan-ALT 0.591667;
#X obj 20 1594 linear-scan-ALT 0.6;
#X obj 20 1616 linear-scan-ALT 0.608333;
#X obj 20 1638 linear-scan-ALT 0.616667;
#X obj 20 1660 linear-scan-ALT 0.625;
#X obj 20 1682 linear-scan-ALT 0.633333;
#X obj 20 1704 linear-scan-ALT 0.641667;
#X obj 20 1726 linear-scan-ALT 0.65;
#X obj 20 1748 linear-scan-ALT 0.658333;
#X obj 20 1770 linear-scan-ALT 0.666667;
#X obj 20 1792 linear-scan-ALT 0.675;
#X obj 20 1814 linear-scan-ALT 0.683333;
#X obj 20 1836 linear-scan-ALT 0.691667;
#X obj 20 1858 linear-scan-ALT 0.7;
#X obj 20 1880 linear-scan-ALT 0.708333;
#X obj 20 1902 linear-scan-ALT 0.716667;
#X obj 20 1924 linear-scan-ALT 0.725;
#X obj 20 1946 linear-scan-ALT 0.733333;
#X obj 20 1968 linear-scan-ALT 0.741667;
#X obj 20 1990 linear-scan-ALT 0.75;
#X obj 20 2012 linear-scan-ALT 0.758333;
#X obj 20 2034 linear-scan-ALT 0.766667;
#X obj 20 2056 linear-scan-ALT 0.775;
#X obj 20 2078 linear-scan-ALT 0.783333;
#X obj 20 2100 linear-scan-ALT 0.791667;
#X obj 20 2122 linear-scan-ALT 0.8;
#X obj 20 2144 linear-scan-ALT 0.808333;
#X obj 20 2166 linear-scan-ALT 0.816667;
#X obj 20 2188 linear-scan-ALT 0.825;
#X obj 20 2210 linear-scan-ALT 0.833333;
#X obj 20 2232 linear-scan-ALT 0.841667;
#X obj 20 2254 linear-scan-ALT 0.85;
#X obj 20 2276 linear-scan-ALT 0.858333;
#X obj 20 2298 linear-scan-ALT 0.866667;
#X obj 20 2320 linear-scan-ALT 0.875;
#X obj 20 2342 linear-scan-ALT 0.883333;
#X obj 20 2364 linear-scan-ALT 0.891667;
#X obj 20 2386 linear-scan-ALT 0.9;
#X obj 20 2408 linear-scan-ALT 0.908333;
#X obj 20 2430 linear-scan-ALT 0.916667;
#X obj 20 2452 linear-scan-ALT 0.925;
#X obj 20 2474 linear-scan-ALT 0.933333;
#X obj 20 2496 linear-scan-ALT 0.941667;
#X obj 20 2518 linear-scan-ALT 0.95;
#X obj 20 2540 linear-scan-ALT 0.958333;
#X obj 20 2562 linear-scan-ALT 0.966667;
#X obj 20 2584 linear-scan-ALT 0.975;
#X obj 20 2606 linear-scan-ALT 0.983333;
#X obj 20 2628 linear-scan-ALT 0.991667;
#X obj 20 10 linear-scan-ALT 0;
#X obj 20 32 linear-scan-ALT 0.00833333;
#X obj 20 54 linear-scan-ALT 0.0166667;
#X obj 20 76 linear-scan-ALT 0.025;
#X obj 20 98 linear-scan-ALT 0.0333333;
#X obj 20 120 linear-scan-ALT 0.0416667;
#X obj 20 142 linear-scan-ALT 0.05;
#X obj 20 164 linear-scan-ALT 0.0583333;
#X obj 20 186 linear-scan-ALT 0.0666667;
#X obj 20 208 linear-scan-ALT 0.075;
#X obj 20 230 linear-scan-ALT 0.0833333;
#X obj 20 252 linear-scan-ALT 0.0916667;
#X obj 20 274 linear-scan-ALT 0.1;
#X obj 20 296 linear-scan-ALT 0.108333;
#X obj 20 318 linear-scan-ALT 0.116667;
#X obj 20 340 linear-scan-ALT 0.125;
#X obj 20 362 linear-scan-ALT 0.133333;
#X obj 20 384 linear-scan-ALT 0.141667;
#X obj 20 406 linear-scan-ALT 0.15;
#X obj 20 428 linear-scan-ALT 0.158333;
#X obj 20 450 linear-scan-ALT 0.166667;
#X obj 20 472 linear-scan-ALT 0.175;
#X obj 20 494 linear-scan-ALT 0.183333;
#X obj 20 516 linear-scan-ALT 0.191667;
#X obj 20 538 linear-scan-ALT 0.2;
#X obj 20 560 linear-scan-ALT 0.208333;
#X obj 20 582 linear-scan-ALT 0.216667;
#X obj 20 604 linear-scan-ALT 0.225;
#X obj 20 626 linear-scan-ALT 0.233333;
#X obj 20 648 linear-scan-ALT 0.241667;
#X obj 20 670 linear-scan-ALT 0.25;
#X obj 20 692 linear-scan-ALT 0.258333;
#X obj 20 714 linear-scan-ALT 0.266667;
#X obj 20 736 linear-scan-ALT 0.275;
#X obj 20 758 linear-scan-ALT 0.283333;
#X obj 20 780 linear-scan-ALT 0.291667;
#X obj 20 802 linear-scan-ALT 0.3;
#X obj 20 824 linear-scan-ALT 0.308333;
#X obj 20 846 linear-scan-ALT 0.316667;
#X obj 20 868 linear-scan-ALT 0.325;
#X obj 20 890 linear-scan-ALT 0.333333;
#X obj 20 912 linear-scan-ALT 0.341667;
#X obj 20 934 linear-scan-ALT 0.35;
#X obj 20 956 linear-scan-ALT 0.358333;
#X obj 20 978 linear-scan-ALT 0.366667;
#X obj 20 1000 linear-scan-ALT 0.375;
#X obj 20 1022 linear-scan-ALT 0.383333;
#X obj 20 1044 linear-scan-ALT 0.391667;
#X obj 20 1066 linear-scan-ALT 0.4;
#X obj 20 1088 linear-scan-ALT 0.408333;
#X obj 20 1110 linear-scan-ALT 0.416667;
#X obj 20 1132 linear-scan-ALT 0.425;
#X obj 20 1154 linear-scan-ALT 0.433333;
#X obj 20 1176 linear-scan-ALT 0.441667;
#X obj 20 1198 linear-scan-ALT 0.45;
#X obj 20 1220 linear-scan-ALT 0.458333;
#X obj 20 1242 linear-scan-ALT 0.466667;
#X obj 20 1264 linear-scan-ALT 0.475;
#X obj 20 1286 linear-scan-ALT 0.483333;
#X obj 20 1308 linear-scan-ALT 0.491667;
#X obj 20 1330 linear-scan-ALT 0.5;
#X obj 20 1352 linear-scan-ALT 0.508333;
#X obj 20 1374 linear-scan-ALT 0.516667;
#X obj 20 1396 linear-scan-ALT 0.525;
#X obj 20 1418 linear-scan-ALT 0.533333;
#X obj 20 1440 linear-scan-ALT 0.541667;
#X obj 20 1462 linear-scan-ALT 0.55;
#X obj 20 1484 linear-scan-ALT 0.558333;
#X obj 20 1506 linear-scan-ALT 0.566667;
#X obj 20 1528 linear-scan-ALT 0.575;
#X obj 20 1550 linear-scan-ALT 0.583333;
#X obj 20 1572 linear-scan-ALT 0.591667;
#X obj 20 1594 linear-scan-ALT 0.6;
#X obj 20 1616 linear-scan-ALT 0.608333;
#X obj 20 1638 linear-scan-ALT 0.616667;
#X obj 20 1660 linear-scan-ALT 0.625;
#X obj 20 1682 linear-scan-ALT 0.633333;
#X obj 20 1704 linear-scan-ALT 0.641667;
#X obj 20 1726 linear-scan-ALT 0.65;
#X obj 20 1748 linear-scan-ALT 0.658333;
#X obj 20 1770 linear-scan-ALT 0.666667;
#X obj 20 1792 linear-scan-ALT 0.675;
#X obj 20 1814 linear-scan-ALT 0.683333;
#X obj 20 1836 linear-scan-ALT 0.691667;
#X obj 20 1858 linear-scan-ALT 0.7;
#X obj 20 1880 linear-scan-ALT 0.708333;
#X obj 20 1902 linear-scan-ALT 0.716667;
#X obj 20 1924 linear-scan-ALT 0.725;
#X obj 20 1946 linear-scan-ALT 0.733333;
#X obj 20 1968 linear-scan-ALT 0.741667;
#X obj 20 1990 linear-scan-ALT 0.75;
#X obj 20 2012 linear-scan-ALT 0.758333;
#X obj 20 2034 linear-scan-ALT 0.766667;
#X obj 20 2056 linear-scan-ALT 0.775;
#X obj 20 2078 linear-scan-ALT 0.783333;
#X obj 20 2100 linear-scan-ALT 0.791667;
#X obj 20 2122 linear-scan-ALT 0.8;
#X obj 20 2144 linear-scan-ALT 0.808333;
#X obj 20 2166 linear-scan-ALT 0.816667;
#X obj 20 2188 linear-scan-ALT 0.825;
#X obj 20 2210 linear-scan-ALT 0.833333;
#X obj 20 2232 linear-scan-ALT 0.841667;
#X obj 20 2254 linear-scan-ALT 0.85;
#X obj 20 2276 linear-scan-ALT 0.858333;
#X obj 20 2298 linear-scan-ALT 0.866667;
#X obj 20 2320 linear-scan-ALT 0.875;
#X obj 20 2342 linear-scan-ALT 0.883333;
#X obj 20 2364 linear-scan-ALT 0.891667;
#X obj 20 2386 linear-scan-ALT 0.9;
#X obj 20 2408 linear-scan-ALT 0.908333;
#X obj 20 2430 linear-scan-ALT 0.916667;
#X obj 20 2452 linear-scan-ALT 0.925;
#X obj 20 2474 linear-scan-ALT 0.933333;
#X obj 20 2496 linear-scan-ALT 0.941667;
#X obj 20 2518 linear-scan-ALT 0.95;
#X obj 20 2540 linear-scan-ALT 0.958333;
#X obj 20 2562 linear-scan-ALT 0.966667;
#X obj 20 2584 linear-scan-ALT 0.975;
#X obj 20 2606 linear-scan-ALT 0.983333;
#X obj 20 2628 linear-scan-ALT 0.991667;
#X obj 20 10 linear-scan-ALT 0;
#X obj 20 32 linear-scan-ALT 0.00833333;
#X obj 20 54 linear-scan-ALT 0.0166667;
#X obj 20 76 linear-scan-ALT 0.025;
#X obj 20 98 linear-scan-ALT 0.0333333;
#X obj 20 120 linear-scan-ALT 0.0416667;
#X obj 20 142 linear-scan-ALT 0.05;
#X obj 20 164 linear-scan-ALT 0.0583333;
#X obj 20 186 linear-scan-ALT 0.0666667;
#X obj 20 208 linear-scan-ALT 0.075;
#X obj 20 230 linear-scan-ALT 0.0833333;
#X obj 20 252 linear-scan-ALT 0.0916667;
#X obj 20 274 linear-scan-ALT 0.1;
#X obj 20 296 linear-scan-ALT 0.108333;
#X obj 20 318 linear-scan-ALT 0.116667;
#X obj 20 340 linear-scan-ALT 0.125;
#X obj 20 362 linear-scan-ALT 0.133333;
#X obj 20 384 linear-scan-ALT 0.141667;
#X obj 20 406 linear-scan-ALT 0.15;
#X obj 20 428 linear-scan-ALT 0.158333;
#X obj 20 450 linear-scan-ALT 0.166667;
#X obj 20 472 linear-scan-ALT 0.175;
#X obj 20 494 linear-scan-ALT 0.183333;
#X obj 20 516 linear-scan-ALT 0.191667;
#X obj 20 538 linear-scan-ALT 0.2;
#X obj 20 560 linear-scan-ALT 0.208333;
#X obj 20 582 linear-scan-ALT 0.216667;
#X obj 20 604 linear-scan-ALT 0.225;
#X obj 20 626 linear-scan-ALT 0.233333;
#X obj 20 648 linear-scan-ALT 0.241667;
#X obj 20 670 linear-scan-ALT 0.25;
#X obj 20 692 linear-scan-ALT 0.258333;
#X obj 20 714 linear-scan-ALT 0.266667;
#X obj 20 736 linear-scan-ALT 0.275;
#X obj 20 758 linear-scan-ALT 0.283333;
#X obj 20 780 linear-scan-ALT 0.291667;
#X obj 20 802 linear-scan-ALT 0.3;
#X obj 20 824 linear-scan-ALT 0.308333;
#X obj 20 846 linear-scan-ALT 0.316667;
#X obj 20 868 linear-scan-ALT 0.325;
#X obj 20 890 linear-scan-ALT 0.333333;
#X obj 20 912 linear-scan-ALT 0.341667;
#X obj 20 934 linear-scan-ALT 0.35;
#X obj 20 956 linear-scan-ALT 0.358333;
#X obj 20 978 linear-scan-ALT 0.366667;
#X obj 20 1000 linear-scan-ALT 0.375;
#X obj 20 1022 linear-scan-ALT 0.383333;
#X obj 20 1044 linear-scan-ALT 0.391667;
#X obj 20 1066 linear-scan-ALT 0.4;
#X obj 20 1088 linear-scan-ALT 0.408333;
#X obj 20 1110 linear-scan-ALT 0.416667;
#X obj 20 1132 linear-scan-ALT 0.425;
#X obj 20 1154 linear-scan-ALT 0.433333;
#X obj 20 1176 linear-scan-ALT 0.441667;
#X obj 20 1198 linear-scan-ALT 0.45;
#X obj 20 1220 linear-scan-ALT 0.458333;
#X obj 20 1242 linear-scan-ALT 0.466667;
#X obj 20 1264 linear-scan-ALT 0.475;
#X obj 20 1286 linear-scan-ALT 0.483333;
#X obj 20 1308 linear-scan-ALT 0.491667;
#X obj 20 1330 linear-scan-ALT 0.5;
#X obj 20 1352 linear-scan-ALT 0.508333;
#X obj 20 1374 linear-scan-ALT 0.516667;
#X obj 20 1396 linear-scan-ALT 0.525;
#X obj 20 1418 linear-scan-ALT 0.533333;
#X obj 20 1440 linear-scan-ALT 0.541667;
#X obj 20 1462 linear-scan-ALT 0.55;
#X obj 20 1484 linear-scan-ALT 0.558333;
#X obj 20 1506 linear-scan-ALT 0.566667;
#X obj 20 1528 linear-scan-ALT 0.575;
#X obj 20 1550 linear-scan-ALT 0.583333;
#X obj 20 1572 linear-scan-ALT 0.591667;
#X obj 20 1594 linear-scan-ALT 0.6;
#X obj 20 1616 linear-scan-ALT 0.608333;
#X obj 20 1638 linear-scan-ALT 0.616667;
#X obj 20 1660 linear-scan-ALT 0.625;
#X obj 20 1682 linear-scan-ALT 0.633333;
#X obj 20 1704 linear-scan-ALT 0.641667;
#X obj 20 1726 linear-scan-ALT 0.65;
#X obj 20 1748 linear-scan-ALT 0.658333;
#X obj 20 1770 linear-scan-ALT 0.666667;
#X obj 20 1792 linear-scan-ALT 0.675;
#X obj 20 1814 linear-scan-ALT 0.683333;
#X obj 20 1836 linear-scan-ALT 0.691667;
#X obj 20 1858 linear-scan-ALT 0.7;
#X obj 20 1880 linear-scan-ALT 0.708333;
#X obj 20 1902 linear-scan-ALT 0.716667;
#X obj 20 1924 linear-scan-ALT 0.725;
#X obj 20 1946 linear-scan-ALT 0.733333;
#X obj 20 1968 linear-scan-ALT 0.741667;
#X obj 20 1990 linear-scan-ALT 0.75;
#X obj 20 2012 linear-scan-ALT 0.758333;
#X obj 20 2034 linear-scan-ALT 0.766667;
#X obj 20 2056 linear-scan-ALT 0.775;
#X obj 20 2078 linear-scan-ALT 0.783333;
#X obj 20 2100 linear-scan-ALT 0.791667;
#X obj 20 2122 linear-scan-ALT 0.8;
#X obj 20 2144 linear-scan-ALT 0.808333;
#X obj 20 2166 linear-scan-ALT 0.816667;
#X obj 20 2188 linear-scan-ALT 0.825;
#X obj 20 2210 linear-scan-ALT 0.833333;
#X obj 20 2232 linear-scan-ALT 0.841667;
#X obj 20 2254 linear-scan-ALT 0.85;
#X obj 20 2276 linear-scan-ALT 0.858333;
#X obj 20 2298 linear-scan-ALT 0.866667;
#X obj 20 2320 linear-scan-ALT 0.875;
#X obj 20 2342 linear-scan-ALT 0.883333;
#X obj 20 2364 linear-scan-ALT 0.891667;
#X obj 20 2386 linear-scan-ALT 0.9;
#X obj 20 2408 linear-scan-ALT 0.908333;
#X obj 20 2430 linear-scan-ALT 0.916667;
#X obj 20 2452 linear-scan-ALT 0.925;
#X obj 20 2474 linear-scan-ALT 0.933333;
#X obj 20 2496 linear-scan-ALT 0.941667;
#X obj 20 2518 linear-scan-ALT 0.95;
#X obj 20 2540 linear-scan-ALT 0.958333;
#X obj 20 2562 linear-scan-ALT 0.966667;
#X obj 20 2584 linear-scan-ALT 0.975;
#X obj 20 2606 linear-scan-ALT 0.983333;
#X obj 20 2628 linear-scan-ALT 0.991667;
#X obj 20 10 linear-scan-ALT 0;
#X obj 20 32 linear-scan-ALT 0.00833333;
#X obj 20 54 linear-scan-ALT 0.0166667;
#X obj 20 76 linear-scan-ALT 0.025;
#X obj 20 98 linear-scan-ALT 0.0333333;
#X obj 20 120 linear-scan-ALT 0.0416667;
#X obj 20 142 linear-scan-ALT 0.05;
#X obj 20 164 linear-scan-ALT 0.0583333;
#X obj 20 186 linear-scan-ALT 0.0666667;
#X obj 20 208 linear-scan-ALT 0.075;
#X obj 20 230 linear-scan-ALT 0.0833333;
#X obj 20 252 linear-scan-ALT 0.0916667;
#X obj 20 274 linear-scan-ALT 0.1;
#X obj 20 296 linear-scan-ALT 0.108333;
#X obj 20 318 linear-scan-ALT 0.116667;
#X obj 20 340 linear-scan-ALT 0.125;
#X obj 20 362 linear-scan-ALT 0.133333;
#X obj 20 384 linear-scan-ALT 0.141667;
#X obj 20 406 linear-scan-ALT 0.15;
#X obj 20 428 linear-scan-ALT 0.158333;
#X obj 20 450 linear-scan-ALT 0.166667;
#X obj 20 472 linear-scan-ALT 0.175;
#X obj 20 494 linear-scan-ALT 0.183333;
#X obj 20 516 linear-scan-ALT 0.191667;
#X obj 20 538 linear-scan-ALT 0.2;
#X obj 20 560 linear-scan-ALT 0.208333;
#X obj 20 582 linear-scan-ALT 0.216667;
#X obj 20 604 linear-scan-ALT 0.225;
#X obj 20 626 linear-scan-ALT 0.233333;
#X obj 20 648 linear-scan-ALT 0.241667;
#X obj 20 670 linear-scan-ALT 0.25;
#X obj 20 692 linear-scan-ALT 0.258333;
#X obj 20 714 linear-scan-ALT 0.266667;
#X obj 20 736 linear-scan-ALT 0.275;
#X obj 20 758 linear-scan-ALT 0.283333;
#X obj 20 780 linear-scan-ALT 0.291667;
#X obj 20 802 linear-scan-ALT 0.3;
#X obj 20 824 linear-scan-ALT 0.308333;
#X obj 20 846 linear-scan-ALT 0.316667;
#X obj 20 868 linear-scan-ALT 0.325;
#X obj 20 890 linear-scan-ALT 0.333333;
#X obj 20 912 linear-scan-ALT 0.341667;
#X obj 20 934 linear-scan-ALT 0.35;
#X obj 20 956 linear-scan-ALT 0.358333;
#X obj 20 978 linear-scan-ALT 0.366667;
#X obj 20 1000 linear-scan-ALT 0.375;
#X obj 20 1022 linear-scan-ALT 0.383333;
#X obj 20 1044 linear-scan-ALT 0.391667;
#X obj 20 1066 linear-scan-ALT 0.4;
#X obj 20 1088 linear-scan-ALT 0.408333;
#X obj 20 1110 linear-scan-ALT 0.416667;
#X obj 20 1132 linear-scan-ALT 0.425;
#X obj 20 1154 linear-scan-ALT 0.433333;
#X obj 20 1176 linear-scan-ALT 0.441667;
#X obj 20 1198 linear-scan-ALT 0.45;
#X obj 20 1220 linear-scan-ALT 0.458333;
#X obj 20 1242 linear-scan-ALT 0.466667;
#X obj 20 1264 linear-scan-ALT 0.475;
#X obj 20 1286 linear-scan-ALT 0.483333;
#X obj 20 1308 linear-scan-ALT 0.491667;
#X obj 20 1330 linear-scan-ALT 0.5;
#X obj 20 1352 linear-scan-ALT 0.508333;
#X obj 20 1374 linear-scan-ALT 0.516667;
#X obj 20 1396 linear-scan-ALT 0.525;
#X obj 20 1418 linear-scan-ALT 0.533333;
#X obj 20 1440 linear-scan-ALT 0.541667;
#X obj 20 1462 linear-scan-ALT 0.55;
#X obj 20 1484 linear-scan-ALT 0.558333;
#X obj 20 1506 linear-scan-ALT 0.566667;
#X obj 20 1528 linear-scan-ALT 0.575;
#X obj 20 1550 linear-scan-ALT 0.583333;
#X obj 20 1572 linear-scan-ALT 0.591667;
#X obj 20 1594 linear-scan-ALT 0.6;
#X obj 20 1616 linear-scan-ALT 0.608333;
#X obj 20 1638 linear-scan-ALT 0.616667;
#X obj 20 1660 linear-scan-ALT 0.625;
#X obj 20 1682 linear-scan-ALT 0.633333;
#X obj 20 1704 linear-scan-ALT 0.641667;
#X obj 20 1726 linear-scan-ALT 0.65;
#X obj 20 1748 linear-scan-ALT 0.658333;
#X obj 20 1770 linear-scan-ALT 0.666667;
#X obj 20 1792 linear-scan-ALT 0.675;
#X obj 20 1814 linear-scan-ALT 0.683333;
#X obj 20 1836 linear-scan-ALT 0.691667;
#X obj 20 1858 linear-scan-ALT 0.7;
#X obj 20 1880 linear-scan-ALT 0.708333;
#X obj 20 1902 linear-scan-ALT 0.716667;
#X obj 20 1924 linear-scan-ALT 0.725;
#X obj 20 1946 linear-scan-ALT 0.733333;
#X obj 20 1968 linear-scan-ALT 0.741667;
#X obj 20 1990 linear-scan-ALT 0.75;
#X obj 20 2012 linear-scan-ALT 0.758333;
#X obj 20 2034 linear-scan-ALT 0.766667;
#X obj 20 2056 linear-scan-ALT 0.775;
#X obj 20 2078 linear-scan-ALT 0.783333;
#X obj 20 2100 linear-scan-ALT 0.791667;
#X obj 20 2122 linear-scan-ALT 0.8;
#X obj 20 2144 linear-scan-ALT 0.808333;
#X obj 20 2166 linear-scan-ALT 0.816667;
#X obj 20 2188 linear-scan-ALT 0.825;
#X obj 20 2210 linear-scan-ALT 0.833333;
#X obj 20 2232 linear-scan-ALT 0.841667;
#X obj 20 2254 linear-scan-ALT 0.85;
#X obj 20 2276 linear-scan-ALT 0.858333;
#X obj 20 2298 linear-scan-ALT 0.866667;
#X obj 20 2320 linear-scan-ALT 0.875;
#X obj 20 2342 linear-scan-ALT 0.883333;
#X obj 20 2364 linear-scan-ALT 0.891667;
#X obj 20 2386 linear-scan-ALT 0.9;
#X obj 20 2408 linear-scan-ALT 0.908333;
#X obj 20 2430 linear-scan-ALT 0.916667;
#X obj 20 2452 linear-scan-ALT 0.925;
#X obj 20 2474 linear-scan-ALT 0.933333;
#X obj 20 2496 linear-scan-ALT 0.941667;
#X obj 20 2518 linear-scan-ALT 0.95;
#X obj 20 2540 linear-scan-ALT 0.958333;
#X obj 20 2562 linear-scan-ALT 0.966667;
#X obj 20 2584 linear-scan-ALT 0.975;
#X obj 20 2606 linear-scan-ALT 0.983333;
#X obj 20 2628 linear-scan-ALT 0.991667;
#X obj 20 10 linear-scan-ALT 0;
#X obj 20 32 linear-scan-ALT 0.00833333;
#X obj 20 54 linear-scan-ALT 0.0166667;
#X obj 20 76 linear-scan-ALT 0.025;
#X obj 20 98 linear-scan-ALT 0.0333333;
#X obj 20 120 linear-scan-ALT 0.0416667;
#X obj 20 142 linear-scan-ALT 0.05;
#X obj 20 164 linear-scan-ALT 0.0583333;
#X obj 20 186 linear-scan-ALT 0.0666667;
#X obj 20 208 linear-scan-ALT 0.075;
#X obj 20 230 linear-scan-ALT 0.0833333;
#X obj 20 252 linear-scan-ALT 0.0916667;
#X obj 20 274 linear-scan-ALT 0.1;
#X obj 20 296 linear-scan-ALT 0.108333;
#X obj 20 318 linear-scan-ALT 0.116667;
#X obj 20 340 linear-scan-ALT 0.125;
#X obj 20 362 linear-scan-ALT 0.133333;
#X obj 20 384 linear-scan-ALT 0.141667;
#X obj 20 406 linear-scan-ALT 0.15;
#X obj 20 428 linear-scan-ALT 0.158333;
#X obj 20 450 linear-scan-ALT 0.166667;
#X obj 20 472 linear-scan-ALT 0.175;
#X obj 20 494 linear-scan-ALT 0.183333;
#X obj 20 516 linear-scan-ALT 0.191667;
#X obj 20 538 linear-scan-ALT 0.2;
#X obj 20 560 linear-scan-ALT 0.208333;
#X obj 20 582 linear-scan-ALT 0.216667;
#X obj 20 604 linear-scan-ALT 0.225;
#X obj 20 626 linear-scan-ALT 0.233333;
#X obj 20 648 linear-scan-ALT 0.241667;
#X obj 20 670 linear-scan-ALT 0.25;
#X obj 20 692 linear-scan-ALT 0.258333;
#X obj 20 714 linear-scan-ALT 0.266667;
#X obj 20 736 linear-scan-ALT 0.275;
#X obj 20 758 linear-scan-ALT 0.283333;
#X obj 20 780 linear-scan-ALT 0.291667;
#X obj 20 802 linear-scan-ALT 0.3;
#X obj 20 824 linear-scan-ALT 0.308333;
#X obj 20 846 linear-scan-ALT 0.316667;
#X obj 20 868 linear-scan-ALT 0.325;
#X obj 20 890 linear-scan-ALT 0.333333;
#X obj 20 912 linear-scan-ALT 0.341667;
#X obj 20 934 linear-scan-ALT 0.35;
#X obj 20 956 linear-scan-ALT 0.358333;
#X obj 20 978 linear-scan-ALT 0.366667;
#X obj 20 1000 linear-scan-ALT 0.375;
#X obj 20 1022 linear-scan-ALT 0.383333;
#X obj 20 1044 linear-scan-ALT 0.391667;
#X obj 20 1066 linear-scan-ALT 0.4;
#X obj 20 1088 linear-scan-ALT 0.408333;
#X obj 20 1110 linear-scan-ALT 0.416667;
#X obj 20 1132 linear-scan-ALT 0.425;
#X obj 20 1154 linear-scan-ALT 0.433333;
#X obj 20 1176 linear-scan-ALT 0.441667;
#X obj 20 1198 linear-scan-ALT 0.45;
#X obj 20 1220 linear-scan-ALT 0.458333;
#X obj 20 1242 linear-scan-ALT 0.466667;
#X obj 20 1264 linear-scan-ALT 0.475;
#X obj 20 1286 linear-scan-ALT 0.483333;
#X obj 20 1308 linear-scan-ALT 0.491667;
#X obj 20 1330 linear-scan-ALT 0.5;
#X obj 20 1352 linear-scan-ALT 0.508333;
#X obj 20 1374 linear-scan-ALT 0.516667;
#X obj 20 1396 linear-scan-ALT 0.525;
#X obj 20 1418 linear-scan-ALT 0.533333;
#X obj 20 1440 linear-scan-ALT 0.541667;
#X obj 20 1462 linear-scan-ALT 0.55;
#X obj 20 1484 linear-scan-ALT 0.558333;
#X obj 20 1506 linear-scan-ALT 0.566667;
#X obj 20 1528 linear-scan-ALT 0.575;
#X obj 20 1550 linear-scan-ALT 0.583333;
#X obj 20 1572 linear-scan-ALT 0.591667;
#X obj 20 1594 linear-scan-ALT 0.6;
#X obj 20 1616 linear-scan-ALT 0.608333;
#X obj 20 1638 linear-scan-ALT 0.616667;
#X obj 20 1660 linear-scan-ALT 0.625;
#X obj 20 1682 linear-scan-ALT 0.633333;
#X obj 20 1704 linear-scan-ALT 0.641667;
#X obj 20 1726 linear-scan-ALT 0.65;
#X obj 20 1748 linear-scan-ALT 0.658333;
#X obj 20 1770 linear-scan-ALT 0.666667;
#X obj 20 1792 linear-scan-ALT 0.675;
#X obj 20 1814 linear-scan-ALT 0.683333;
#X obj 20 1836 linear-scan-ALT 0.691667;
#X obj 20 1858 linear-scan-ALT 0.7;
#X obj 20 1880 linear-scan-ALT 0.708333;
#X obj 20 1902 linear-scan-ALT 0.716667;
#X obj 20 1924 linear-scan-ALT 0.725;
#X obj 20 1946 linear-scan-ALT 0.733333;
#X obj 20 1968 linear-scan-ALT 0.741667;
#X obj 20 1990 linear-scan-ALT 0.75;
#X obj 20 2012 linear-scan-ALT 0.758333;
#X obj 20 2034 linear-scan-ALT 0.766667;
#X obj 20 2056 linear-scan-ALT 0.775;
#X obj 20 2078 linear-scan-ALT 0.783333;
#X obj 20 2100 linear-scan-ALT 0.791667;
#X obj 20 2122 linear-scan-ALT 0.8;
#X obj 20 2144 linear-scan-ALT 0.808333;
#X obj 20 2166 linear-scan-ALT 0.816667;
#X obj 20 2188 linear-scan-ALT 0.825;
#X obj 20 2210 linear-scan-ALT 0.833333;
#X obj 20 2232 linear-scan-ALT 0.841667;
#X obj 20 2254 linear-scan-ALT 0.85;
#X obj 20 2276 linear-scan-ALT 0.858333;
#X obj 20 2298 linear-scan-ALT 0.866667;
#X obj 20 2320 linear-scan-ALT 0.875;
#X obj 20 2342 linear-scan-ALT 0.883333;
#X obj 20 2364 linear-scan-ALT 0.891667;
#X obj 20 2386 linear-scan-ALT 0.9;
#X obj 20 2408 linear-scan-ALT 0.908333;
#X obj 20 2430 linear-scan-ALT 0.916667;
#X obj 20 2452 linear-scan-ALT 0.925;
#X obj 20 2474 linear-scan-ALT 0.933333;
#X obj 20 2496 linear-scan-ALT 0.941667;
#X obj 20 2518 linear-scan-ALT 0.95;
#X obj 20 2540 linear-scan-ALT 0.958333;
#X obj 20 2562 linear-scan-ALT 0.966667;
#X obj 20 2584 linear-scan-ALT 0.975;
#X obj 20 2606 linear-scan-ALT 0.983333;
#X obj 20 2628 linear-scan-ALT 0.991667;
#X restore 50 500 pd subpatch;
#X floatatom 152 56 5 0 0 0 - - - 0;
#X obj 155 36 hsl 128 15 0 10 0 0 empty empty contrast -2 -8 0 10 #fcfcfc #000000 #000000 0 1;
#X obj 413 30 declare -lib Gem;
#X text 49 222 Frequency Range;
#X text 366 181 Scanning duration;
#X connect 1 0 2 0;
#X connect 1 0 2 1;
#X connect 4 0 3 0;
#X connect 6 0 5 0;
#X connect 8 0 7 3;
#X connect 9 0 7 0;
#X connect 10 0 7 2;
#X connect 13 0 7 1;
#X connect 19 0 20 0;
#X connect 24 0 23 0;
#X connect 25 0 23 0;
#X connect 26 0 23 0;
#X connect 27 0 0 0;
#X connect 28 0 23 0;
#X connect 29 0 23 0;
#X connect 30 0 23 0;
#X connect 31 0 24 0;
#X connect 33 0 0 1;
#X connect 34 0 33 0;
