#N canvas 27 32 1277 607 12;
#X obj 30 561 gemwin;
#X msg 40 528 0 \, destroy;
#X msg 29 493 reset \, dimen 640 480 \, create \, 1;
#N canvas 400 130 592 425 import-image 0;
#X obj 118 181 pix_image;
#X obj 118 286 pix_texture;
#X obj 175 110 openpanel;
#X msg 175 139 open \$1;
#X obj 121 9 gemhead 10;
#X obj 175 81 inlet;
#X obj 127 211 s image;
#X obj 117 355 rectangle 5 4;
#X connect 0 0 1 0;
#X connect 0 0 6 0;
#X connect 1 0 7 0;
#X connect 2 0 3 0;
#X connect 3 0 0 0;
#X connect 4 0 0 0;
#X connect 5 0 2 0;
#X restore 390 59 pd import-image;
#X obj 390 33 bng 15 250 50 0 empty empty 1-import_image 17 7 0 10 #fc0400 #000000 #000000;
#X obj 29 363 catch~ audio;
#X obj 28 402 output~;
#X floatatom 395 273 10 0 0 0 - - duration 0;
#X obj 398 256 hsl 128 15 100 90000 0 0 empty empty Duration_(ms) -2 -8 0 10 #c4fcfc #000000 #000000 0 1;
#X obj 29 468 loadbang;
#X floatatom 397 343 10 0 0 0 - - range 0;
#X obj 400 326 hsl 128 15 100 5000 1 0 empty empty range_(Hz) -2 -8 0 10 #c4fcfc #000000 #000000 0 1;
#N canvas 624 70 450 300 scanxPos 0;
#X obj 54 107 metro 100;
#X obj 156 177 line;
#X obj 54 57 t a a;
#X obj 156 76 sel 1;
#X floatatom 156 229 5 0 0 0 - - - 0;
#X obj 156 205 * 0.001;
#X obj 157 99 t b b;
#X msg 156 152 0;
#X msg 202 124 set 1000 \$1;
#X msg 204 148 1000 5762.99;
#X obj 203 93 r duration;
#X obj 54 28 inlet;
#X obj 156 261 s scanxPos;
#X obj 54 138 s getdata;
#X connect 0 0 13 0;
#X connect 1 0 5 0;
#X connect 2 0 0 0;
#X connect 2 1 3 0;
#X connect 3 0 6 0;
#X connect 4 0 12 0;
#X connect 5 0 4 0;
#X connect 6 0 9 0;
#X connect 6 1 7 0;
#X connect 7 0 1 0;
#X connect 8 0 9 0;
#X connect 9 0 1 0;
#X connect 10 0 8 0;
#X connect 11 0 2 0;
#X restore 400 407 pd scanxPos;
#X obj 400 384 tgl 15 0 empty empty start_scan 17 7 0 10 #fc0400 #000000 #000000 0 1;
#N canvas 0 23 699 576 generate-scanpoints 0;
#X obj 83 145 until;
#X obj 84 431 s pd-subpatch;
#X obj 83 110 t f f b;
#X obj 83 39 bng 15 250 50 0 empty empty 2-create_scan_points 17 7 0 10 #fc0400 #000000 #000000;
#X obj 370 338 s pd-linear-Scan-Image.pd;
#X msg 370 308 obj 50 35 pd subpatch;
#X floatatom 85 245 5 0 0 0 - - - 0;
#X floatatom 86 288 5 0 0 0 - - - 0;
#X obj 85 208 f;
#X obj 118 208 + 1;
#X obj 85 266 expr ($f1/$f2);
#X text 117 65 nro de scan points;
#X msg 106 178 0;
#X msg 83 64 40;
#X obj 82 3 inlet;
#X msg 268 42 set \$1;
#X obj 269 10 r nroScanpoints;
#X obj 85 370 pack f f;
#X obj 85 315 t f f;
#X msg 84 398 obj 100 \$1 linear-scan \$2;
#X floatatom 361 442 5 0 0 0 - - - 0;
#X floatatom 369 493 5 0 0 0 - - - 0;
#X obj 364 466 * 350;
#X obj 86 343 * 1000;
#X connect 0 0 8 0;
#X connect 2 0 0 0;
#X connect 2 1 10 1;
#X connect 2 2 5 0;
#X connect 2 2 12 0;
#X connect 3 0 13 0;
#X connect 5 0 4 0;
#X connect 6 0 10 0;
#X connect 7 0 18 0;
#X connect 8 0 9 0;
#X connect 8 0 6 0;
#X connect 9 0 8 1;
#X connect 10 0 7 0;
#X connect 12 0 8 1;
#X connect 13 0 2 0;
#X connect 14 0 3 0;
#X connect 15 0 13 0;
#X connect 16 0 15 0;
#X connect 17 0 19 0;
#X connect 18 0 23 0;
#X connect 18 1 17 1;
#X connect 19 0 1 0;
#X connect 20 0 22 0;
#X connect 22 0 21 0;
#X connect 23 0 17 0;
#X restore 395 201 pd generate-scanpoints;
#X obj 395 175 bng 15 250 50 0 empty empty 3-create_scan_points 17 7 0 10 #fc0400 #000000 #000000;
#X obj 391 120 nbx 5 30 -1e+37 1e+37 0 0 nroScanpoints empty 2-nro_de_scanpoints 0 -8 0 15 #c4fcfc #000000 #000000 0 256;
#N canvas 0 25 450 300 subpatch 0;
#X obj 100 0 linear-scan 0;
#X obj 100 100 linear-scan 0.1;
#X obj 100 200 linear-scan 0.2;
#X obj 100 300 linear-scan 0.3;
#X obj 100 400 linear-scan 0.4;
#X obj 100 500 linear-scan 0.5;
#X obj 100 600 linear-scan 0.6;
#X obj 100 700 linear-scan 0.7;
#X obj 100 800 linear-scan 0.8;
#X obj 100 900 linear-scan 0.9;
#X obj 100 0 linear-scan 0;
#X obj 100 25 linear-scan 0.025;
#X obj 100 50 linear-scan 0.05;
#X obj 100 75 linear-scan 0.075;
#X obj 100 100 linear-scan 0.1;
#X obj 100 125 linear-scan 0.125;
#X obj 100 150 linear-scan 0.15;
#X obj 100 175 linear-scan 0.175;
#X obj 100 200 linear-scan 0.2;
#X obj 100 225 linear-scan 0.225;
#X obj 100 250 linear-scan 0.25;
#X obj 100 275 linear-scan 0.275;
#X obj 100 300 linear-scan 0.3;
#X obj 100 325 linear-scan 0.325;
#X obj 100 350 linear-scan 0.35;
#X obj 100 375 linear-scan 0.375;
#X obj 100 400 linear-scan 0.4;
#X obj 100 425 linear-scan 0.425;
#X obj 100 450 linear-scan 0.45;
#X obj 100 475 linear-scan 0.475;
#X obj 100 500 linear-scan 0.5;
#X obj 100 525 linear-scan 0.525;
#X obj 100 550 linear-scan 0.55;
#X obj 100 575 linear-scan 0.575;
#X obj 100 600 linear-scan 0.6;
#X obj 100 625 linear-scan 0.625;
#X obj 100 650 linear-scan 0.65;
#X obj 100 675 linear-scan 0.675;
#X obj 100 700 linear-scan 0.7;
#X obj 100 725 linear-scan 0.725;
#X obj 100 750 linear-scan 0.75;
#X obj 100 775 linear-scan 0.775;
#X obj 100 800 linear-scan 0.8;
#X obj 100 825 linear-scan 0.825;
#X obj 100 850 linear-scan 0.85;
#X obj 100 875 linear-scan 0.875;
#X obj 100 900 linear-scan 0.9;
#X obj 100 925 linear-scan 0.925;
#X obj 100 950 linear-scan 0.95;
#X obj 100 975 linear-scan 0.975;
#X restore 50 35 pd subpatch;
#N canvas 208 233 450 300 subpatch 0;
#X obj 100 0 linear-scan 0;
#X obj 100 25 linear-scan 0.025;
#X obj 100 50 linear-scan 0.05;
#X obj 100 75 linear-scan 0.075;
#X obj 100 100 linear-scan 0.1;
#X obj 100 125 linear-scan 0.125;
#X obj 100 150 linear-scan 0.15;
#X obj 100 175 linear-scan 0.175;
#X obj 100 200 linear-scan 0.2;
#X obj 100 225 linear-scan 0.225;
#X obj 100 250 linear-scan 0.25;
#X obj 100 275 linear-scan 0.275;
#X obj 100 300 linear-scan 0.3;
#X obj 100 325 linear-scan 0.325;
#X obj 100 350 linear-scan 0.35;
#X obj 100 375 linear-scan 0.375;
#X obj 100 400 linear-scan 0.4;
#X obj 100 425 linear-scan 0.425;
#X obj 100 450 linear-scan 0.45;
#X obj 100 475 linear-scan 0.475;
#X obj 100 500 linear-scan 0.5;
#X obj 100 525 linear-scan 0.525;
#X obj 100 550 linear-scan 0.55;
#X obj 100 575 linear-scan 0.575;
#X obj 100 600 linear-scan 0.6;
#X obj 100 625 linear-scan 0.625;
#X obj 100 650 linear-scan 0.65;
#X obj 100 675 linear-scan 0.675;
#X obj 100 700 linear-scan 0.7;
#X obj 100 725 linear-scan 0.725;
#X obj 100 750 linear-scan 0.75;
#X obj 100 775 linear-scan 0.775;
#X obj 100 800 linear-scan 0.8;
#X obj 100 825 linear-scan 0.825;
#X obj 100 850 linear-scan 0.85;
#X obj 100 875 linear-scan 0.875;
#X obj 100 900 linear-scan 0.9;
#X obj 100 925 linear-scan 0.925;
#X obj 100 950 linear-scan 0.95;
#X obj 100 975 linear-scan 0.975;
#X restore 50 35 pd subpatch;
#X connect 1 0 0 0;
#X connect 2 0 0 0;
#X connect 4 0 3 0;
#X connect 5 0 6 0;
#X connect 5 0 6 1;
#X connect 8 0 7 0;
#X connect 9 0 2 0;
#X connect 11 0 10 0;
#X connect 13 0 12 0;
#X connect 15 0 14 0;
