#N canvas 45 25 1025 785 12;
#X floatatom 121 133 5 0 0 0 - - - 0;
#X obj 157 188 mod 12;
#X obj 149 236 select 0 2 4 5 7 9 11;
#X msg 149 277 0;
#X floatatom 294 263 5 0 0 0 - - - 0;
#X msg 294 291 -1;
#X obj 121 333 +;
#X floatatom 121 367 5 0 0 0 - - - 0;
#X obj 121 30 bng 20 250 50 0 empty empty empty 0 -10 0 12 #fcfcfc #000000 #000000;
#X obj 121 166 t f f;
#X floatatom 157 211 5 0 0 0 - - - 0;
#X obj 121 99 + 60;
#X obj 121 65 random 12;
#X connect 0 0 9 0;
#X connect 1 0 10 0;
#X connect 2 0 3 0;
#X connect 2 1 3 0;
#X connect 2 2 3 0;
#X connect 2 3 3 0;
#X connect 2 4 3 0;
#X connect 2 5 3 0;
#X connect 2 6 3 0;
#X connect 2 7 4 0;
#X connect 3 0 6 1;
#X connect 4 0 5 0;
#X connect 5 0 6 1;
#X connect 6 0 7 0;
#X connect 8 0 12 0;
#X connect 9 0 6 0;
#X connect 9 1 1 0;
#X connect 10 0 2 0;
#X connect 11 0 0 0;
#X connect 12 0 11 0;
