#N canvas 410 131 997 492 12;
#X obj 41 226 metro;
#X floatatom 73 198 5 0 0 0 - - - 0;
#X obj 41 201 tgl 19 0 empty empty empty 0 -10 0 12 #fcfcfc #000000 #000000 0 1;
#X obj 41 260 f;
#X obj 77 260 + 1;
#X floatatom 41 316 5 0 0 0 - - - 0;
#X obj 41 339 tabread sequence;
#X obj 41 395 noteout, f 16;
#X obj 73 21 loadbang;
#X msg 169 39 \; sequence 0 64 66 71 73 74 66 64 73 71 66 74 73;
#X obj 261 226 metro;
#X floatatom 293 198 5 0 0 0 - - - 0;
#X obj 261 260 f;
#X obj 297 260 + 1;
#X floatatom 261 316 5 0 0 0 - - - 0;
#X obj 261 339 tabread sequence;
#X obj 261 395 noteout, f 16;
#X obj 73 174 expr int(60000/$f1);
#X obj 293 174 expr int(60000/$f1);
#X msg 73 151 410;
#X msg 293 151 406;
#X obj 41 289 mod 12;
#X obj 261 289 mod 12;
#X obj 169 15 table sequence 12;
#X obj 41 366 makenote 100 145;
#X obj 261 366 makenote 100 146;
#X obj 561 213 hradio 19 1 0 12 empty v-2 Sequence-2 0 -10 0 12 #fcfcfc #000000 #000000 0;
#X obj 317 308 s v-2;
#X obj 560 173 hradio 19 1 0 12 empty v-1 Sequence-1 0 -10 0 12 #fcfcfc #000000 #000000 0;
#X obj 91 308 s v-1;
#X connect 0 0 3 0;
#X connect 1 0 0 1;
#X connect 2 0 0 0;
#X connect 2 0 10 0;
#X connect 3 0 4 0;
#X connect 3 0 21 0;
#X connect 4 0 3 1;
#X connect 5 0 6 0;
#X connect 6 0 24 0;
#X connect 8 0 19 0;
#X connect 8 0 9 0;
#X connect 8 0 20 0;
#X connect 10 0 12 0;
#X connect 11 0 10 1;
#X connect 12 0 13 0;
#X connect 12 0 22 0;
#X connect 13 0 12 1;
#X connect 14 0 15 0;
#X connect 15 0 25 0;
#X connect 17 0 1 0;
#X connect 18 0 11 0;
#X connect 19 0 17 0;
#X connect 20 0 18 0;
#X connect 21 0 5 0;
#X connect 21 0 29 0;
#X connect 22 0 14 0;
#X connect 22 0 27 0;
#X connect 24 0 7 0;
#X connect 24 1 7 1;
#X connect 25 0 16 0;
#X connect 25 1 16 1;
