#N canvas 0 43 1366 634 12;
#X obj -33 322 osc~;
#X obj 163 318 phasor~;
#X floatatom 163 280 5 0 0 0 - - -;
#X obj 699 336 expr~ if ($v1 < 0.5 \, 1 \, -1);
#X obj -32 371 *~;
#X obj 0 344 == 0;
#X obj 276 450 *~;
#X obj 682 461 *~;
#X obj 302 424 == 2;
#X obj 708 435 == 3;
#X obj 144 482 *~;
#X obj 167 398 == 1;
#X obj 130 666 outlet~;
#X floatatom 11 373 5 0 0 0 - - -;
#X obj 146 435 expr~ ($v1*2)-1;
#X obj 268 362 expr~ ((if ($v1 < 0.5 \, $v1 \, 1 - $v1 )) -0.25) *
4;
#X obj 128 132 vradio 15 1 0 4 empty empty Waveform 0 -8 0 10 -262144
-1 -1 3;
#X text 149 127 sine;
#X text 148 142 saw;
#X text 147 177 square;
#X text 145 161 triangle;
#X obj -27 191 inlet~;
#X obj 130 214 s \$0-radio;
#X obj 14 319 r \$0-radio;
#X obj 168 375 r \$0-radio;
#X obj 709 412 r \$0-radio;
#X obj 303 401 r \$0-radio;
#X connect 0 0 4 0;
#X connect 1 0 3 0;
#X connect 1 0 14 0;
#X connect 1 0 15 0;
#X connect 2 0 1 0;
#X connect 2 0 0 0;
#X connect 3 0 7 0;
#X connect 4 0 12 0;
#X connect 5 0 4 1;
#X connect 5 0 13 0;
#X connect 6 0 12 0;
#X connect 7 0 12 0;
#X connect 8 0 6 1;
#X connect 9 0 7 1;
#X connect 10 0 12 0;
#X connect 11 0 10 1;
#X connect 14 0 10 0;
#X connect 15 0 6 0;
#X connect 16 0 22 0;
#X connect 21 0 1 0;
#X connect 21 0 0 0;
#X connect 23 0 5 0;
#X connect 24 0 11 0;
#X connect 25 0 9 0;
#X connect 26 0 8 0;
#X coords 0 -1 1 1 120 100 1 100 100;
