#N canvas 451 -571 450 300 10;
#X obj 227 77 - 512;
#X obj 56 238 outlet~;
#X msg 56 159 \$1 20;
#X obj 56 198 line~;
#X obj 56 107 expr if ($i1 < 512 \, $i1 \, $i2);
#X obj 56 61 + \$1;
#X obj 56 9 r angle;
#X obj 56 37 expr ($f1 + 45) * 512 / 360;
#X obj 56 128 peek~ chowning-table;
#X connect 0 0 4 1;
#X connect 2 0 3 0;
#X connect 3 0 1 0;
#X connect 4 0 8 0;
#X connect 5 0 0 0;
#X connect 5 0 4 0;
#X connect 6 0 7 0;
#X connect 7 0 5 0;
#X connect 8 0 2 0;
