#N struct 2543-point float x0 float y0 float xs float ys float fg float in float gridx float gridy;
#N canvas 5 27 865 765 12;
#X floatatom 359 343 5 0 90 0 - - - 0;
#X floatatom 359 393 8 0 90 0 - - - 0;
#X obj 359 368 * 0.0174533;
#X obj 359 483 vsl 15 100 0 1 0 0 empty empty empty 0 -9 0 10 #fcfcfc #000000 #000000 0 1;
#X obj 454 483 vsl 15 100 0 1 0 0 empty empty empty 0 -9 0 10 #fcfcfc #000000 #000000 0 1;
#X obj 298 680 output~;
#X obj 359 420 expr cos($f1) \; sin($f1);
#X obj 29 437 phasor~ 220, f 12;
#X floatatom 359 457 5 0 0 0 - - - 0;
#X floatatom 454 457 5 0 0 0 - - - 0;
#X text 421 393 angle (radians);
#X obj 362 317 hsl 162 19 0 90 0 0 empty empty Angle\ (0-90) -2 -10 0 12 #c6feff #000000 #000000 0 1;
#X obj 298 633 expr~ $v1*$v2 \; $v1*$v3, f 18;
#X obj 359 64 slider2d 127 127 0 1 0 1 1 255 255 255 0 0 0 0 0 0 0.771654 1 empty empty;
#X msg 359 33 range 0 1;
#X obj 359 9 loadbang;
#X obj 359 202 unpack f f;
#X obj 359 227 * 90;
#X obj 426 228 s distance;
#X obj 187 437 r distance;
#X obj 29 464 expr~ $v1 / (($v2*9)+1);
#X obj 27 559 lop~;
#X obj 52 511 r distance;
#X obj 52 536 expr (1 - $f1) * 7000 + 1000;
#X connect 0 0 2 0;
#X connect 1 0 6 0;
#X connect 2 0 1 0;
#X connect 3 0 12 1;
#X connect 4 0 12 2;
#X connect 6 0 8 0;
#X connect 6 1 9 0;
#X connect 7 0 20 0;
#X connect 8 0 3 0;
#X connect 9 0 4 0;
#X connect 11 0 0 0;
#X connect 12 0 5 0;
#X connect 12 1 5 1;
#X connect 13 0 16 0;
#X connect 14 0 13 0;
#X connect 15 0 14 0;
#X connect 16 0 17 0;
#X connect 16 1 18 0;
#X connect 17 0 11 0;
#X connect 19 0 20 1;
#X connect 20 0 21 0;
#X connect 21 0 12 0;
#X connect 22 0 23 0;
#X connect 23 0 21 1;
