#N struct 1005-point float x0 float y0 float xs float ys float fg float in float gridx float gridy;
#N canvas 5 27 865 765 12;
#X floatatom 359 343 5 0 90 0 - - - 0;
#X floatatom 359 393 8 0 90 0 - - - 0;
#X obj 359 368 * 0.0174533;
#X obj 359 483 vsl 15 100 0 1 0 0 empty empty empty 0 -9 0 10 #fcfcfc #000000 #000000 0 1;
#X obj 454 483 vsl 15 100 0 1 0 0 empty empty empty 0 -9 0 10 #fcfcfc #000000 #000000 0 1;
#X obj 318 680 output~;
#X obj 359 420 expr cos($f1) \; sin($f1);
#X obj 29 278 phasor~ 220, f 12;
#X floatatom 359 457 5 0 0 0 - - - 0;
#X floatatom 454 457 5 0 0 0 - - - 0;
#X text 421 393 angle (radians);
#X obj 362 317 hsl 162 19 0 90 0 0 empty empty Angle\ (0-90) -2 -10 0 12 #c6feff #000000 #000000 0 1;
#X obj 359 64 slider2d 127 127 0 1 0 1 1 255 255 255 0 0 0 0 0 0 0.692913 0.409449 empty empty;
#X msg 359 33 range 0 1;
#X obj 359 9 loadbang;
#X obj 359 202 unpack f f;
#X obj 359 227 * 90;
#X obj 426 228 s distance;
#X obj 187 278 r distance;
#X obj 29 305 expr~ $v1 / (($v2*9)+1);
#X obj 27 400 lop~;
#X obj 52 352 r distance;
#X obj 52 377 expr (1 - $f1) * 7000 + 1000;
#X obj 27 536 freeverb~;
#X obj 318 633 expr~ $v1*$v2 \; $v3*$v4, f 18;
#X obj 41 450 loadbang;
#X obj 27 563 *~;
#X obj 87 563 *~;
#X obj 27 588 s~ L;
#X obj 87 587 s~ R;
#X obj 318 608 r~ L;
#X obj 400 607 r~ R;
#X obj 155 514 knob 50 0 1 0 0.001 empty empty #dfdfdf #7c7c7c black 1 0 0 0 1 320 0 0 0.001 empty empty 0 12 6 -15 0 1 0 0;
#X text 140 495 Reverb Level;
#X obj 64 419 s~ dry;
#X obj 308 587 r~ dry;
#X floatatom 155 565 5 0 0 0 - - - 0;
#X msg 40 473 dry 0 \, wet 1 \, roomsize 0.95;
#X text 28 257 Audio Source;
#X connect 0 0 2 0;
#X connect 1 0 6 0;
#X connect 2 0 1 0;
#X connect 3 0 24 1;
#X connect 4 0 24 3;
#X connect 6 0 8 0;
#X connect 6 1 9 0;
#X connect 7 0 19 0;
#X connect 8 0 3 0;
#X connect 9 0 4 0;
#X connect 11 0 0 0;
#X connect 12 0 15 0;
#X connect 13 0 12 0;
#X connect 14 0 13 0;
#X connect 15 0 16 0;
#X connect 15 1 17 0;
#X connect 16 0 11 0;
#X connect 18 0 19 1;
#X connect 19 0 20 0;
#X connect 20 0 23 0;
#X connect 20 0 34 0;
#X connect 21 0 22 0;
#X connect 22 0 20 1;
#X connect 23 0 26 0;
#X connect 23 1 27 0;
#X connect 24 0 5 0;
#X connect 24 1 5 1;
#X connect 25 0 37 0;
#X connect 26 0 28 0;
#X connect 27 0 29 0;
#X connect 30 0 24 0;
#X connect 31 0 24 2;
#X connect 32 0 27 1;
#X connect 32 0 26 1;
#X connect 32 0 36 0;
#X connect 35 0 24 0;
#X connect 35 0 24 2;
#X connect 37 0 23 0;
