#N canvas 243 99 819 662 12;
#X floatatom 269 83 5 0 90 0 - - - 0;
#X floatatom 269 133 8 0 90 0 - - - 0;
#X obj 269 108 * 0.0174533;
#X obj 269 223 vsl 15 100 0 1 0 0 empty empty empty 0 -9 0 10 #fcfcfc #000000 #000000 0 1;
#X obj 364 223 vsl 15 100 0 1 0 0 empty empty empty 0 -9 0 10 #fcfcfc #000000 #000000 0 1;
#X obj 208 420 output~;
#X obj 269 160 expr cos($f1) \; sin($f1);
#X obj 208 333 phasor~ 220, f 7;
#X floatatom 269 197 5 0 0 0 - - - 0;
#X floatatom 364 197 5 0 0 0 - - - 0;
#X text 331 133 angle (radians);
#X obj 272 57 hsl 162 19 0 90 0 0 empty empty Angle\ (0-90) -2 -10 0 12 #c6feff #000000 #000000 0 1;
#X obj 208 373 expr~ $v1*$v2 \; $v1*$v3, f 18;
#X connect 0 0 2 0;
#X connect 1 0 6 0;
#X connect 2 0 1 0;
#X connect 3 0 12 1;
#X connect 4 0 12 2;
#X connect 6 0 8 0;
#X connect 6 1 9 0;
#X connect 7 0 12 0;
#X connect 8 0 3 0;
#X connect 9 0 4 0;
#X connect 11 0 0 0;
#X connect 12 0 5 0;
#X connect 12 1 5 1;
