#N canvas 142 73 961 551 12;
#X obj 269 264 expr~ ($v1 + $v2) * 0.7071;
#X text 232 262 Mid;
#X text 667 261 Side;
#X text 116 263 ENCODING -->;
#X obj 269 375 expr~ ($v1 + $v2) * 0.7071;
#X obj 477 374 expr~ ($v1 - $v2) * 0.7071;
#X obj 269 438 output~;
#X text 118 373 DECODING -->;
#X text 232 375 Left;
#X text 667 374 Right;
#X obj 477 264 expr~ ($v1 - $v2) * 0.7071;
#X obj 729 247 hsl 162 19 0 1 0 0 empty empty Stereo\ Width\  -2 -10 0 12 #c7c6ff #000000 #000000 0 1;
#X obj 268 180 readsf~ 2, f 52;
#X msg 268 153 open drum.wav \, 1;
#X obj 629 202 s loop;
#X obj 268 129 r loop;
#X obj 268 91 bng 19 250 50 0 empty empty PLAY! 0 -10 0 12 #c6ffc7 #000000 #000000;
#X obj 477 292 expr~ $v1 * $v2, f 36;
#X floatatom 726 269 5 0 0 0 - - - 0;
#X connect 0 0 4 0;
#X connect 0 0 5 0;
#X connect 4 0 6 0;
#X connect 5 0 6 1;
#X connect 10 0 17 0;
#X connect 11 0 18 0;
#X connect 12 0 0 0;
#X connect 12 0 10 0;
#X connect 12 1 0 1;
#X connect 12 1 10 1;
#X connect 12 2 14 0;
#X connect 13 0 12 0;
#X connect 15 0 13 0;
#X connect 16 0 13 0;
#X connect 17 0 4 1;
#X connect 17 0 5 1;
#X connect 18 0 17 1;
