#N canvas 535 62 1440 847 12;
#X obj 114 28 tgl 15 0 empty empty Start/Stop 0 -10 0 10 #fcfcfc #000000 #000000 0 1;
#X obj 114 101 metro 500;
#X floatatom 174 49 5 0 0 0 - - - 0;
#X text 169 33 BPM;
#X obj 114 279 unpack f f;
#X obj 114 309 noteout 1;
#X obj 174 73 expr 60000/$f1;
#X obj 400 23 loadbang;
#X obj 114 255 makenote 100 250;
#X obj 114 205 tabread midi_note;
#X msg 400 50 \; midi_note 0 60 62 64 65 67 69 71 72;
#N canvas 0 22 450 278 (subpatch) 0;
#X array midi_note 7 float 3;
#A 0 60 62 64 65 67 69 71;
#X coords 0 127 7 0 200 140 1 0 0;
#X restore 401 168 graph;
#X obj 114 124 bng 19 250 50 0 empty empty empty 0 -10 0 12 #fcfcfc #000000 #000000;
#X floatatom 114 183 5 0 0 0 - - - 0;
#X obj 114 153 expr random(0 \, 8);
#X floatatom 114 230 5 0 0 0 - - - 0;
#X connect 0 0 1 0;
#X connect 1 0 12 0;
#X connect 2 0 6 0;
#X connect 4 0 5 0;
#X connect 4 1 5 1;
#X connect 6 0 1 1;
#X connect 7 0 10 0;
#X connect 8 0 4 0;
#X connect 9 0 15 0;
#X connect 12 0 14 0;
#X connect 13 0 9 0;
#X connect 14 0 13 0;
#X connect 15 0 8 0;
