#N canvas 0 25 738 420 12;
#X obj 114 28 tgl 15 0 empty empty Start/Stop 0 -10 0 10 #fcfcfc #000000 #000000 0 1;
#X obj 114 101 metro 500;
#X floatatom 174 49 5 0 0 0 - - - 0;
#X text 169 33 BPM;
#X obj 142 131 + 1;
#X obj 114 161 mod 8;
#X obj 114 275 unpack f f;
#X obj 114 305 noteout 1;
#X obj 174 73 expr 60000/$f1;
#X obj 400 23 loadbang;
#X floatatom 114 186 5 0 0 0 - - - 0;
#X obj 114 245 makenote 100 250;
#X obj 114 131 f;
#X obj 114 215 tabread midi_note;
#X msg 400 50 \; midi_note 0 60 62 64 65 67 69 71 72;
#N canvas 0 22 450 278 (subpatch) 0;
#X array midi_note 7 float 3;
#A 0 60 62 64 65 67 69 71;
#X coords 0 127 7 0 200 140 1 0 0;
#X restore 401 168 graph;
#X connect 0 0 1 0;
#X connect 1 0 12 0;
#X connect 2 0 8 0;
#X connect 4 0 12 1;
#X connect 5 0 10 0;
#X connect 6 0 7 0;
#X connect 6 1 7 1;
#X connect 8 0 1 1;
#X connect 9 0 14 0;
#X connect 10 0 13 0;
#X connect 11 0 6 0;
#X connect 12 0 4 0;
#X connect 12 0 5 0;
#X connect 13 0 11 0;
