#N canvas 260 61 1148 795 12;
#X obj 60 379 catch~ audio;
#X obj 60 407 output~;
#X obj 430 446 clone harmonic 5;
#X floatatom 512 316 4 0 0 0 - - - 0;
#X msg 544 422 resize \$1;
#X obj 431 168 until;
#X obj 431 192 bng 19 250 50 0 empty empty empty 0 -10 0 12 #fcfcfc #000000 #000000;
#X obj 431 216 f;
#X obj 459 216 + 1;
#X obj 431 268 mod, f 10;
#X floatatom 431 293 5 0 0 0 - - - 0;
#X obj 431 142 t f f b, f 20;
#X msg 453 192 0;
#X msg 431 406 \$1 \$2 \$3;
#X obj 431 379 pack f f f, f 24;
#X floatatom 60 54 5 0 0 2 Base\ Frequency - - 0;
#X obj 60 76 s freq;
#X obj 596 353 r freq;
#X obj 512 266 + 1;
#X obj 431 239 t f f, f 12;
#X obj 512 289 t f f;
#X floatatom 431 91 5 1 100 2 - - - 0;
#X obj 431 48 hradio 15 1 0 20 empty empty #\ partials 0 -10 0 12 #fcfcfc #000000 #000000 0;
#X obj 487 109 s n-partials;
#X connect 0 0 1 0;
#X connect 0 0 1 1;
#X connect 3 0 14 1;
#X connect 4 0 2 0;
#X connect 5 0 6 0;
#X connect 6 0 7 0;
#X connect 7 0 8 0;
#X connect 7 0 19 0;
#X connect 8 0 7 1;
#X connect 9 0 10 0;
#X connect 10 0 14 0;
#X connect 11 0 5 0;
#X connect 11 1 9 1;
#X connect 11 2 12 0;
#X connect 12 0 7 1;
#X connect 13 0 2 0;
#X connect 14 0 13 0;
#X connect 15 0 16 0;
#X connect 17 0 14 2;
#X connect 18 0 20 0;
#X connect 19 0 9 0;
#X connect 19 1 18 0;
#X connect 20 0 3 0;
#X connect 20 1 4 0;
#X connect 21 0 11 0;
#X connect 21 0 23 0;
#X connect 22 0 21 0;
