#N canvas 955 58 450 300 12;
#X obj 128 151 osc~;
#X obj 128 266 throw~ audio;
#X obj 128 127 *;
#X obj 128 12 inlet;
#X floatatom 195 85 5 0 0 0 - - - 0;
#X floatatom 128 64 5 0 0 0 - - - 0;
#X obj 128 38 unpack f f;
#X obj 227 190 line~;
#X obj 195 61 t f b;
#X obj 276 137 del 10;
#X msg 276 160 1 10;
#X obj 128 209 *~;
#X msg 227 161 0 10;
#X obj 128 237 expr~ $v1 * pow($f2 \, -0.6);
#X obj 307 211 r n-partials;
#X connect 0 0 11 0;
#X connect 2 0 0 0;
#X connect 3 0 6 0;
#X connect 4 0 2 1;
#X connect 5 0 2 0;
#X connect 6 0 5 0;
#X connect 6 1 8 0;
#X connect 7 0 11 1;
#X connect 8 0 4 0;
#X connect 8 1 12 0;
#X connect 8 1 9 0;
#X connect 9 0 10 0;
#X connect 10 0 7 0;
#X connect 11 0 13 0;
#X connect 12 0 7 0;
#X connect 13 0 1 0;
#X connect 14 0 13 1;
