#N canvas 163 40 985 666 16;
#X obj 45 46 s freq;
#X floatatom 45 16 5 0 0 0 - updateFreq - 0;
#X obj 305 16 catch~ audio;
#X obj 35 200 oscilador 1 1000;
#X obj 35 241 oscilador 2 1100;
#X obj 35 282 oscilador 3 1200;
#X obj 35 323 oscilador 4 1300;
#X obj 35 364 oscilador 5 1400;
#X obj 35 405 oscilador 6 1500;
#X obj 35 446 oscilador 7 1600;
#X obj 35 487 oscilador 8 1700;
#X obj 35 528 oscilador 9 1800;
#X obj 35 569 oscilador 10 1900;
#X obj 252 200 oscilador 11 2000;
#X obj 252 241 oscilador 12 2100;
#X obj 252 282 oscilador 13 2200;
#X obj 252 323 oscilador 14 2300;
#X obj 252 364 oscilador 15 2400;
#X obj 252 405 oscilador 16 2500;
#X obj 252 446 oscilador 17 2600;
#X obj 252 487 oscilador 18 2700;
#X obj 252 528 oscilador 19 2800;
#X obj 252 569 oscilador 20 2900;
#X obj 39 97 hradio 15 1 0 11 empty empty Duración_Global 0 -8 0 10 #c4c4fc #000000 #000000 0;
#X obj 39 146 s timeScale;
#X floatatom 39 118 5 0 0 0 - - - 0;
#X text 98 18 Frequency;
#X obj 305 45 out~;
#X connect 1 0 0 0;
#X connect 2 0 27 0;
#X connect 2 0 27 1;
#X connect 23 0 25 0;
#X connect 25 0 24 0;
