#N canvas 356 154 1010 588 12;
#X obj 569 410 line;
#X floatatom 569 445 5 0 0 0 - - - 0;
#X msg 694 391 0 500;
#X obj 569 235 bng 15 250 50 0 empty empty empty 17 7 0 10 #fcfcfc #000000 #000000;
#X obj 693 290 bng 15 250 50 0 empty empty empty 17 7 0 10 #fcfcfc #000000 #000000;
#X obj 38 447 throw~ audio;
#X obj 569 202 metro;
#X obj 38 414 *~;
#X obj 618 73 f \$2;
#X msg 706 362 set 0 \$1;
#X obj 693 250 delay;
#X floatatom 705 208 5 0 0 0 - - - 0;
#X msg 569 336 1 500;
#X obj 704 165 * 0.5;
#X msg 578 307 set 1 \$1;
#X obj 38 178 r freq;
#X obj 569 477 s \$0-escalador;
#X obj 56 389 r \$0-escalador;
#X obj 569 -6 r \$0-bang;
#X obj 69 70 s \$0-bang;
#X obj 38 101 s updateFreq;
#X obj 45 218 r \$0-bang;
#X obj 38 313 *, f 6;
#X obj 37 14 loadbang;
#X obj 45 253 f \$1;
#X obj 45 286 t b f;
#X obj 37 42 t b b;
#X obj 38 347 osc~ 100;
#X obj 600 104 *;
#X obj 600 39 r timeScale;
#X floatatom 600 149 5 0 0 0 - - - 0;
#X obj 527 431 vsl 15 128 0 1 0 0 empty empty empty 0 -9 0 10 #fcfcfc #000000 #000000 0 1;
#X connect 0 0 1 0;
#X connect 0 0 31 0;
#X connect 1 0 16 0;
#X connect 2 0 0 0;
#X connect 3 0 12 0;
#X connect 3 0 10 0;
#X connect 4 0 2 0;
#X connect 6 0 3 0;
#X connect 7 0 5 0;
#X connect 8 0 28 1;
#X connect 9 0 2 0;
#X connect 10 0 4 0;
#X connect 11 0 10 1;
#X connect 11 0 9 0;
#X connect 11 0 14 0;
#X connect 12 0 0 0;
#X connect 13 0 11 0;
#X connect 14 0 12 0;
#X connect 15 0 22 0;
#X connect 17 0 7 1;
#X connect 18 0 8 0;
#X connect 18 0 6 0;
#X connect 21 0 24 0;
#X connect 22 0 27 0;
#X connect 23 0 26 0;
#X connect 24 0 25 0;
#X connect 25 0 22 0;
#X connect 25 1 22 1;
#X connect 26 0 20 0;
#X connect 26 1 19 0;
#X connect 27 0 7 0;
#X connect 28 0 30 0;
#X connect 29 0 28 0;
#X connect 30 0 6 1;
#X connect 30 0 13 0;
