#N canvas 670 147 642 503 10;
#X obj 61 363 osc~;
#X floatatom 61 339 5 0 0 0 - - - 0;
#X obj 61 438 *~;
#X floatatom 213 423 5 0 0 0 - - - 0;
#X obj 363 371 line~;
#X msg 484 316 0;
#X obj 61 388 *~;
#X msg 415 316 1 \$1;
#X obj 388 137 + 50;
#X floatatom 395 158 5 0 0 0 - - - 0;
#X obj 313 263 + 50;
#X msg 313 316 0 \$1;
#X obj 457 80 t b b;
#X obj 388 177 t f f;
#X obj 313 194 t b f;
#X obj 388 116 random 2000;
#X obj 313 219 del 2000;
#X obj 313 241 random 2000;
#X obj 510 100 r total-time;
#X obj 358 198 r total-time;
#X obj 376 221 r total-time;
#X text 217 402 Amplitude;
#X obj 61 253 r root-freq;
#X obj 457 31 r bang;
#X text 453 12 trigger envelope;
#X obj 458 51 bng 16 250 50 0 empty empty empty 0 -8 0 10 #fcfcfc #000000 #000000;
#X obj 61 280 *;
#X obj 61 462 throw~ audio;
#X obj 157 246 unpack f f;
#X obj 157 225 inlet;
#X floatatom 157 265 5 0 0 0 - - - 0;
#X text 152 285 # Partial;
#X connect 0 0 6 0;
#X connect 1 0 0 0;
#X connect 2 0 27 0;
#X connect 3 0 2 1;
#X connect 4 0 6 1;
#X connect 5 0 4 0;
#X connect 6 0 2 0;
#X connect 7 0 4 0;
#X connect 8 0 9 0;
#X connect 8 0 13 0;
#X connect 10 0 11 0;
#X connect 11 0 4 0;
#X connect 12 0 15 0;
#X connect 12 1 5 0;
#X connect 13 0 14 0;
#X connect 13 1 7 0;
#X connect 14 0 16 0;
#X connect 14 1 16 1;
#X connect 15 0 8 0;
#X connect 16 0 17 0;
#X connect 17 0 10 0;
#X connect 18 0 15 1;
#X connect 19 0 16 1;
#X connect 20 0 17 1;
#X connect 22 0 26 0;
#X connect 23 0 25 0;
#X connect 25 0 12 0;
#X connect 26 0 1 0;
#X connect 28 0 30 0;
#X connect 28 1 3 0;
#X connect 29 0 28 0;
#X connect 30 0 26 1;
