#N canvas 609 73 598 469 10;
#X floatatom 55 102 5 0 0 0 - - - 0;
#X obj 55 122 s root-freq;
#X obj 55 167 bng 16 250 50 0 empty empty Bang\ me! 0 -8 0 10 #ffc7c6 #000000 #000000;
#X obj 55 186 s bang;
#X msg 389 264 \$1 \$2 \$3;
#X msg 387 93 8;
#X obj 387 142 until;
#X obj 388 170 f;
#X obj 413 170 + 1;
#X msg 426 142 0;
#X obj 387 118 t f b, f 7;
#X obj 388 241 pack f f f, f 11;
#X obj 451 214 expr (8 - $f1)/8;
#X obj 419 214 + 1;
#X obj 388 191 t f f f, f 11;
#X obj 56 381 output~;
#X obj 56 358 catch~ audio;
#X obj 389 288 clone partial 8;
#X obj 55 289 s total-time;
#X obj 58 252 hsl 128 15 100 10000 1 0 empty empty duration\ (ms) -2 -8 0 10 #c6ffc7 #000000 #000000 0 1;
#X floatatom 55 270 10 0 0 0 - - - 0;
#X obj 58 83 hsl 136 16 50 500 0 0 empty empty Frequency\ (Hz) -2 -8 0 10 #c7c6ff #000000 #000000 0 1;
#X obj 386 73 loadbang;
#X connect 0 0 1 0;
#X connect 2 0 3 0;
#X connect 4 0 17 0;
#X connect 5 0 10 0;
#X connect 6 0 7 0;
#X connect 7 0 8 0;
#X connect 7 0 14 0;
#X connect 8 0 7 1;
#X connect 9 0 7 1;
#X connect 10 0 6 0;
#X connect 10 1 9 0;
#X connect 11 0 4 0;
#X connect 12 0 11 2;
#X connect 13 0 11 1;
#X connect 14 0 11 0;
#X connect 14 1 13 0;
#X connect 14 2 12 0;
#X connect 16 0 15 0;
#X connect 16 0 15 1;
#X connect 19 0 20 0;
#X connect 20 0 18 0;
#X connect 21 0 0 0;
#X connect 22 0 5 0;
