#N canvas 55 112 599 711 10;
#X floatatom 29 213 5 0 0 0 - - - 0;
#X floatatom 19 164 5 0 0 0 - - - 0;
#X obj 19 288 del;
#X obj 19 254 t b f;
#X obj 164 126 bng 15 250 50 0 empty empty empty 17 7 0 10 #fcfcfc #000000 #000000;
#X obj 19 318 bng 15 250 50 0 empty empty empty 17 7 0 10 #fcfcfc #000000 #000000;
#X obj 164 333 spigot;
#X obj 197 312 tgl 15 0 empty empty empty 17 7 0 10 #c4fcc4 #000000 #000000 0 1;
#X obj 164 90 bng 30 250 50 0 empty empty empty 17 7 0 10 #c4c4fc #000000 #000000;
#X obj 197 289 loadbang;
#N canvas 0 0 450 300 (subpatch) 0;
#X array \$0-audiotable 44101 float 0;
#X coords 0 1 44100 -1 200 100 1 0 0;
#X restore 321 23 graph;
#X obj 18 455 soundfiler;
#X floatatom 18 477 0 0 0 0 - - - 0;
#X obj 18 386 loadbang;
#X obj 18 409 f \$0;
#X msg 18 553 0 13075;
#X msg 93 552 stop;
#X obj 18 526 t b b, f 13;
#X floatatom 76 95 5 0 0 0 limit - - 0;
#X obj 20 13 bng 15 250 50 0 empty empty 1.open_txt 17 7 0 10 #e0c4fc #000000 #000000;
#X obj 20 38 t b b;
#X obj 18 623 output~;
#N canvas 183 339 841 426 readtxt 0;
#X obj 81 213 textfile;
#X msg 154 183 rewind;
#X floatatom 81 324 10 0 0 0 - - - 0;
#X msg 228 276 0;
#X obj 81 264 bng 15 250 50 0 empty empty empty 17 7 0 10 #fcfcfc #000000 #000000;
#X obj 81 156 t a b b, f 25;
#X obj 81 239 list-drip;
#X obj 81 136 bng 15 250 50 0 empty empty empty 17 7 0 10 #fcfcfc #000000 #000000;
#X obj 83 66 openpanel;
#X msg 83 90 read \$1;
#X obj 82 111 t b a;
#X obj 83 9 inlet;
#X obj 81 349 outlet;
#X obj 328 46 f \$0;
#X text 534 114 carga 24 valores desde archivo "lista.txt";
#X text 536 129 en la tabla "tablalocal";
#X obj 283 82 pack s f;
#X obj 47 15 bng 15 250 50 0 empty empty empty 17 7 0 10 #fcfcfc #000000 #000000;
#X obj 83 30 t b b;
#X obj 81 300 f;
#X obj 106 301 + 1;
#X obj 552 164 table \$0-localtable;
#X msg 283 110 \; \$2-localtable read \$1;
#X connect 0 0 6 0;
#X connect 1 0 0 0;
#X connect 2 0 12 0;
#X connect 3 0 19 1;
#X connect 4 0 19 0;
#X connect 5 0 0 0;
#X connect 5 1 1 0;
#X connect 5 2 3 0;
#X connect 6 0 4 0;
#X connect 7 0 5 0;
#X connect 8 0 9 0;
#X connect 8 0 16 0;
#X connect 9 0 10 0;
#X connect 10 0 7 0;
#X connect 10 1 0 0;
#X connect 11 0 18 0;
#X connect 13 0 16 1;
#X connect 16 0 22 0;
#X connect 17 0 18 0;
#X connect 18 0 8 0;
#X connect 18 1 13 0;
#X connect 19 0 2 0;
#X connect 19 0 20 0;
#X connect 20 0 19 1;
#X restore 76 69 pd readtxt;
#X obj 19 231 * 1;
#X text 160 74 2 play;
#X obj 19 186 tabread \$0-localtable;
#X obj 19 338 s \$0-bang;
#X obj 18 503 r \$0-bang;
#X obj 18 593 tabplay~ \$0-audiotable;
#X msg 18 432 read -resize tom.wav \$1-audiotable \;;
#N canvas 550 79 500 409 counter 0;
#X obj 74 67 inlet;
#X obj 74 180 f;
#X obj 107 134 + 1;
#X obj 155 326 outlet;
#X obj 74 94 bng 15 250 50 0 empty empty empty 17 7 0 10 #fcfcfc #000000 #000000;
#X floatatom 169 225 5 0 0 0 - - - 0;
#X msg 162 132 0;
#X text 160 42 reset;
#X obj 162 67 inlet;
#X obj 262 66 inlet;
#X floatatom 262 238 5 0 0 0 - - - 0;
#X obj 74 207 t f f, f 14;
#X text 263 41 limite (x defecto 24);
#X obj 74 255 sel 24;
#X connect 0 0 4 0;
#X connect 1 0 11 0;
#X connect 2 0 1 1;
#X connect 4 0 1 0;
#X connect 6 0 1 1;
#X connect 8 0 6 0;
#X connect 9 0 10 0;
#X connect 10 0 13 1;
#X connect 11 0 13 0;
#X connect 11 1 3 0;
#X connect 11 1 5 0;
#X connect 13 0 6 0;
#X connect 13 1 2 0;
#X restore 19 140 pd counter;
#X connect 1 0 25 0;
#X connect 2 0 5 0;
#X connect 3 0 2 0;
#X connect 3 1 2 1;
#X connect 4 0 30 0;
#X connect 5 0 6 0;
#X connect 5 0 26 0;
#X connect 6 0 4 0;
#X connect 7 0 6 1;
#X connect 8 0 4 0;
#X connect 9 0 7 0;
#X connect 11 0 12 0;
#X connect 13 0 14 0;
#X connect 14 0 29 0;
#X connect 15 0 28 0;
#X connect 16 0 28 0;
#X connect 17 0 15 0;
#X connect 17 1 16 0;
#X connect 18 0 30 2;
#X connect 19 0 20 0;
#X connect 20 0 22 0;
#X connect 20 1 30 1;
#X connect 22 0 18 0;
#X connect 23 0 3 0;
#X connect 25 0 0 0;
#X connect 25 0 23 0;
#X connect 27 0 17 0;
#X connect 28 0 21 0;
#X connect 28 0 21 1;
#X connect 29 0 11 0;
#X connect 30 0 1 0;
#X coords 0 0 1 1 85 60 0;
