#N canvas 420 25 898 564 12;
#X obj 231 300 textfile;
#X msg 292 270 rewind;
#X floatatom 309 416 10 0 0 0 - - - 0;
#X msg 375 338 0;
#X obj 231 351 bng 15 250 50 0 empty empty empty 17 7 0 10 #fcfcfc #000000 #000000;
#X obj 231 243 t a b b, f 21;
#X obj 231 326 list-drip;
#X obj 231 223 bng 15 250 50 0 empty empty empty 17 7 0 10 #fcfcfc #000000 #000000;
#X obj 233 153 openpanel;
#X msg 233 177 read \$1;
#X obj 232 198 t b a;
#X obj 291 481 outlet;
#X obj 486 136 f \$0;
#X obj 702 251 table \$0-tablalocal;
#X obj 433 172 pack s f;
#X obj 154 102 bng 15 250 50 0 empty empty open_txt 17 7 0 10 #c4c4fc #000000 #000000;
#X msg 433 200 \; \$2-tablalocal read \$1;
#X obj 233 117 t b b;
#X obj 291 455 f;
#X obj 231 387 f;
#X obj 258 387 + 1;
#X connect 0 0 6 0;
#X connect 1 0 0 0;
#X connect 2 0 18 1;
#X connect 3 0 19 1;
#X connect 4 0 19 0;
#X connect 5 0 0 0;
#X connect 5 1 1 0;
#X connect 5 2 3 0;
#X connect 6 0 4 0;
#X connect 6 1 18 0;
#X connect 7 0 5 0;
#X connect 8 0 9 0;
#X connect 8 0 14 0;
#X connect 9 0 10 0;
#X connect 10 0 7 0;
#X connect 10 1 0 0;
#X connect 12 0 14 1;
#X connect 14 0 16 0;
#X connect 15 0 17 0;
#X connect 17 0 8 0;
#X connect 17 1 12 0;
#X connect 18 0 11 0;
#X connect 19 0 2 0;
#X connect 19 0 20 0;
#X connect 20 0 19 1;
#X coords 0 -1 1 1 120 20 1 100 100;
