#N canvas 10 -1055 1132 906 10;
#X declare -path rules;
#X declare -path outcomes;
#N canvas 103 -859 674 728 make.code 0;
#X msg 276 182 clear;
#X obj 97 125 f \$1;
#X obj 37 95 loadbang;
#X obj 142 375 list prepend mode;
#X obj 97 145 clip 0 255;
#X obj 142 225 symbol \$2;
#X obj 169 295 t b b;
#X obj 169 315 f \$3;
#X obj 214 312 f \$4;
#X obj 169 335 pack f f;
#X obj 142 395 list append;
#X obj 244 335 t b;
#X obj 276 202 text define \$0-rules;
#X obj 97 25 inlet;
#X obj 157 495 text set \$0-rules 1e+06;
#X obj 169 265 sel fixed inf;
#X obj 148 425 r \$0-axiom;
#X obj 193 205 r \$0-mode;
#X obj 142 245 t s s;
#X obj 112 545 text search \$0-rules 0;
#X msg 112 525 symbol mode;
#X obj 112 565 text get \$0-rules;
#X obj 146 625 route fixed inf;
#N canvas 706 153 292 244 inf 0;
#X obj 186 143 s \$0-inf.R;
#X obj 159 163 s \$0-tail;
#X obj 86 146 s \$0-inf.L;
#X obj 59 166 s \$0-head;
#X obj 59 46 inlet;
#X msg 59 86 \$1;
#X msg 159 83 \$2;
#X msg 86 126 0;
#X msg 186 123 0;
#X obj 59 66 t a a;
#X obj 59 106 t a b;
#X obj 159 103 t a b;
#X connect 4 0 9 0;
#X connect 5 0 10 0;
#X connect 6 0 11 0;
#X connect 7 0 2 0;
#X connect 8 0 0 0;
#X connect 9 0 5 0;
#X connect 9 1 6 0;
#X connect 10 0 3 0;
#X connect 10 1 7 0;
#X connect 11 0 1 0;
#X connect 11 1 8 0;
#X restore 189 645 pd inf;
#N canvas 586 335 292 244 fix 0;
#X obj 186 123 s \$0-inf.R;
#X obj 159 143 s \$0-tail;
#X obj 86 126 s \$0-inf.L;
#X obj 59 146 s \$0-head;
#X obj 59 46 inlet;
#X msg 59 86 \$1;
#X msg 159 83 \$2;
#X obj 59 66 t a a;
#X obj 59 106 t a b;
#X obj 159 103 t a b;
#X connect 4 0 7 0;
#X connect 5 0 8 0;
#X connect 6 0 9 0;
#X connect 7 0 5 0;
#X connect 7 1 6 0;
#X connect 8 0 3 0;
#X connect 8 1 2 0;
#X connect 9 0 1 0;
#X connect 9 1 0 0;
#X restore 146 645 pd fix;
#X obj 112 585 list split 1;
#X obj 146 605 list trim;
#X obj 206 85 s \$0-axiom;
#X obj 165 119 s \$0-mode;
#X obj 97 165 t b b b b f b;
#X obj 97 675 outlet;
#X text 140 675 reset internal state;
#X obj 179 65 t b a;
#X obj 148 445 list prepend axiom;
#X obj 127 465 list;
#N canvas 474 23 272 599 float.to.binary 0;
#X obj 72 70 / 2;
#X obj 99 70 % 2;
#X obj 72 90 i;
#X obj 72 50 t f f;
#X obj 72 30 inlet;
#X obj 99 90 list prepend 0 0 0;
#X obj 99 150 list prepend 0 0 1;
#X obj 99 210 list prepend 0 1 0;
#X obj 99 270 list prepend 0 1 1;
#X obj 99 330 list prepend 1 0 0;
#X obj 99 390 list prepend 1 0 1;
#X obj 99 450 list prepend 1 1 0;
#X obj 72 490 list prepend 1 1 1;
#X obj 99 530 outlet;
#X obj 72 130 / 2;
#X obj 99 130 % 2;
#X obj 72 150 i;
#X obj 72 110 t f f;
#X obj 72 190 / 2;
#X obj 99 190 % 2;
#X obj 72 210 i;
#X obj 72 170 t f f;
#X obj 72 250 / 2;
#X obj 99 250 % 2;
#X obj 72 270 i;
#X obj 72 230 t f f;
#X obj 72 310 / 2;
#X obj 99 310 % 2;
#X obj 72 330 i;
#X obj 72 290 t f f;
#X obj 72 370 / 2;
#X obj 99 370 % 2;
#X obj 72 390 i;
#X obj 72 350 t f f;
#X obj 72 430 / 2;
#X obj 99 430 % 2;
#X obj 72 450 i;
#X obj 72 410 t f f;
#X obj 72 470 % 2;
#X connect 0 0 2 0;
#X connect 1 0 5 0;
#X connect 2 0 17 0;
#X connect 3 0 0 0;
#X connect 3 1 1 0;
#X connect 4 0 3 0;
#X connect 5 0 13 0;
#X connect 6 0 13 0;
#X connect 7 0 13 0;
#X connect 8 0 13 0;
#X connect 9 0 13 0;
#X connect 10 0 13 0;
#X connect 11 0 13 0;
#X connect 12 0 13 0;
#X connect 14 0 16 0;
#X connect 15 0 6 0;
#X connect 16 0 21 0;
#X connect 17 0 14 0;
#X connect 17 1 15 0;
#X connect 18 0 20 0;
#X connect 19 0 7 0;
#X connect 20 0 25 0;
#X connect 21 0 18 0;
#X connect 21 1 19 0;
#X connect 22 0 24 0;
#X connect 23 0 8 0;
#X connect 24 0 29 0;
#X connect 25 0 22 0;
#X connect 25 1 23 0;
#X connect 26 0 28 0;
#X connect 27 0 9 0;
#X connect 28 0 33 0;
#X connect 29 0 26 0;
#X connect 29 1 27 0;
#X connect 30 0 32 0;
#X connect 31 0 10 0;
#X connect 32 0 37 0;
#X connect 33 0 30 0;
#X connect 33 1 31 0;
#X connect 34 0 36 0;
#X connect 35 0 11 0;
#X connect 36 0 38 0;
#X connect 37 0 34 0;
#X connect 37 1 35 0;
#X connect 38 0 12 0;
#X restore 157 185 pd float.to.binary;
#X obj 97 45 route code mode axiom;
#X obj 138 65 t b a;
#X obj 165 100 symbol;
#X connect 0 0 12 0;
#X connect 1 0 4 0;
#X connect 2 0 1 0;
#X connect 3 0 10 0;
#X connect 4 0 29 0;
#X connect 5 0 18 0;
#X connect 6 0 7 0;
#X connect 6 1 8 0;
#X connect 7 0 9 0;
#X connect 8 0 9 1;
#X connect 9 0 10 1;
#X connect 10 0 14 0;
#X connect 11 0 10 1;
#X connect 13 0 36 0;
#X connect 15 0 6 0;
#X connect 15 1 6 0;
#X connect 15 2 11 0;
#X connect 16 0 33 0;
#X connect 17 0 5 1;
#X connect 18 0 3 0;
#X connect 18 1 15 0;
#X connect 19 0 21 0;
#X connect 20 0 19 0;
#X connect 21 0 25 0;
#X connect 22 0 24 0;
#X connect 22 1 23 0;
#X connect 25 1 26 0;
#X connect 26 0 22 0;
#X connect 29 0 30 0;
#X connect 29 1 20 0;
#X connect 29 2 34 0;
#X connect 29 3 5 0;
#X connect 29 4 35 0;
#X connect 29 5 0 0;
#X connect 32 0 1 0;
#X connect 32 1 27 0;
#X connect 33 0 34 1;
#X connect 34 0 14 0;
#X connect 35 0 14 0;
#X connect 36 0 1 0;
#X connect 36 1 37 0;
#X connect 36 2 32 0;
#X connect 37 0 1 0;
#X connect 37 1 38 0;
#X connect 38 0 28 0;
#X restore 306 100 pd make.code;
#X obj 117 540 list-drip;
#X obj 117 560 list append;
#X obj 117 580 list split 3;
#X obj 117 620 list;
#X obj 117 640 text search \$0-rules 0 1;
#X msg 117 600 \$3 \$2 \$1;
#X obj 117 660 text get \$0-rules 3;
#X obj 117 680 list prepend;
#X obj 117 700 t l l;
#X obj 96 720 list;
#X obj 115 810 text set \$0-outcome;
#X obj 104 871 outlet;
#X obj 96 830 list trim;
#X obj 117 440 text get \$0-outcome;
#X msg 117 400 0;
#X obj 117 380 spigot;
#X msg 117 290 1;
#X obj 151 270 once;
#X obj 151 330 text get \$0-rules;
#X obj 151 310 text search \$0-rules 0;
#X obj 151 350 list split 1;
#X msg 151 290 symbol axiom;
#X obj 117 170 t b b b b;
#X obj 198 190 + 1;
#X obj 338 340 outlet;
#X msg 200 160 1;
#X msg 248 190 0;
#X obj 183 130 t b b b b;
#X obj 168 190 f 1;
#X obj 168 210 t f f;
#X obj 168 250 v \$0-iteration.n;
#N canvas 525 404 555 244 save 0;
#X obj 21 19 inlet;
#X obj 21 59 v \$0-iteration.n;
#X obj 21 39 t b;
#X obj 21 79 sel 0;
#X obj 21 199 print error;
#X msg 21 179 no iterations!;
#X obj 241 69 inlet;
#X obj 241 89 t b;
#X obj 48 159 s \$0-to.text.define;
#X obj 241 149 s \$0-to.save.memory;
#X obj 241 109 savepanel;
#X obj 48 119 savepanel;
#X text 279 68 save all iterations (including the axiom);
#X text 59 18 save the last iteration (skip the axiom);
#X obj 48 99 t b;
#X msg 48 139 write \$1;
#X msg 241 129 write \$1;
#X connect 0 0 2 0;
#X connect 1 0 3 0;
#X connect 2 0 1 0;
#X connect 3 0 5 0;
#X connect 3 1 14 0;
#X connect 5 0 4 0;
#X connect 6 0 7 0;
#X connect 7 0 10 0;
#X connect 10 0 16 0;
#X connect 11 0 15 0;
#X connect 14 0 11 0;
#X connect 15 0 8 0;
#X connect 16 0 9 0;
#X restore 224 100 pd save;
#X obj 457 380 text define \$0-outcome;
#X obj 457 260 loadbang;
#X msg 457 290 clear;
#X obj 457 420 declare -path rules;
#X obj 457 440 declare -path outcomes;
#X obj 206 483 r \$0-head;
#X obj 200 503 r \$0-tail;
#X obj 117 520 list append;
#X obj 117 500 list prepend;
#X obj 117 420 t f b;
#X obj 117 460 t a a;
#N canvas 873 377 308 339 boundary.mode 0;
#X obj 68 33 inlet;
#X obj 68 133 text get \$0-rules;
#X obj 68 113 text search \$0-rules 0;
#X obj 68 153 list split 1;
#X obj 95 73 s \$0-last.state;
#X msg 68 93 symbol mode;
#X obj 102 213 sel loop reflect;
#N canvas 456 313 255 400 reflect 0;
#X obj 105 203 s \$0-inf.R;
#X obj 78 223 s \$0-tail;
#X obj 86 296 s \$0-inf.L;
#X obj 59 316 s \$0-head;
#X obj 59 46 inlet;
#X obj 123 123 list length;
#X obj 123 143 - 1;
#X obj 78 163 list-nth;
#X obj 59 86 list;
#X obj 80 66 r \$0-last.state;
#X obj 59 256 list-nth 0;
#X obj 59 106 t l l l;
#X obj 59 276 t a b;
#X obj 78 183 t a b;
#X connect 4 0 8 0;
#X connect 5 0 6 0;
#X connect 6 0 7 1;
#X connect 7 0 13 0;
#X connect 8 0 11 0;
#X connect 9 0 8 1;
#X connect 10 0 12 0;
#X connect 11 0 10 0;
#X connect 11 1 7 0;
#X connect 11 2 5 0;
#X connect 12 0 3 0;
#X connect 12 1 2 0;
#X connect 13 0 1 0;
#X connect 13 1 0 0;
#X restore 158 243 pd reflect;
#N canvas 370 339 332 326 loop 0;
#X obj 215 163 s \$0-inf.R;
#X obj 188 183 s \$0-tail;
#X obj 86 226 s \$0-inf.L;
#X obj 59 246 s \$0-head;
#X obj 59 46 inlet;
#X obj 104 146 list length;
#X obj 104 166 - 1;
#X obj 59 186 list-nth;
#X obj 59 86 list;
#X obj 80 66 r \$0-last.state;
#X obj 188 123 list-nth 0;
#X obj 59 106 t l l l;
#X obj 59 206 t a b;
#X obj 188 143 t a b;
#X connect 4 0 8 0;
#X connect 5 0 6 0;
#X connect 6 0 7 1;
#X connect 7 0 12 0;
#X connect 8 0 11 0;
#X connect 9 0 8 1;
#X connect 10 0 13 0;
#X connect 11 0 7 0;
#X connect 11 1 5 0;
#X connect 11 2 10 0;
#X connect 12 0 3 0;
#X connect 12 1 2 0;
#X connect 13 0 1 0;
#X connect 13 1 0 0;
#X restore 102 243 pd loop;
#X obj 68 53 t b a;
#X obj 102 173 list trim;
#X obj 102 193 unpack s;
#X connect 0 0 9 0;
#X connect 1 0 3 0;
#X connect 2 0 1 0;
#X connect 3 1 10 0;
#X connect 5 0 2 0;
#X connect 6 0 8 0;
#X connect 6 1 7 0;
#X connect 9 0 5 0;
#X connect 9 1 4 0;
#X connect 10 0 11 0;
#X connect 11 0 6 0;
#X restore 317 477 pd boundary.mode;
#X obj 96 770 list append;
#X obj 96 750 list prepend;
#X obj 185 733 r \$0-inf.L;
#X obj 179 753 r \$0-inf.R;
#X obj 185 370 t a a;
#X obj 467 350 r \$0-to.text.define;
#X obj 96 790 t l l l;
#X obj 467 320 text define \$0-save.memory;
#N canvas 288 312 246 225 check.axiom 0;
#X obj 48 37 inlet;
#X obj 48 57 t b b;
#X obj 81 97 text search \$0-rules 0;
#X msg 81 77 symbol axiom;
#X obj 81 117 != -1;
#X obj 48 137 spigot;
#X obj 48 157 outlet;
#X connect 0 0 1 0;
#X connect 1 0 5 0;
#X connect 1 1 3 0;
#X connect 2 0 4 0;
#X connect 3 0 2 0;
#X connect 4 0 5 1;
#X connect 5 0 6 0;
#X restore 87 130 pd check.axiom;
#X obj 245 807 text set \$0-save.memory 1e+06;
#X obj 507 290 r \$0-to.save.memory;
#X obj 183 70 route reset last dump;
#X obj 87 23 bng 16 250 50 0 empty empty Iterate 0 -8 0 10 #c6ffc7 #000000 #000000;
#X msg 186 5 code 30;
#X msg 202 46 mode loop;
#X msg 195 25 axiom 0 0 0 0 0 0 1 0 0 0 0 0;
#X text 387 2 Rule;
#X text 387 23 Axiom;
#X text 387 44 Mode;
#X obj 97 890 print Rule 30;
#X listbox 107 852 53 0 0 0 - - - 0;
#X connect 0 0 28 0;
#X connect 1 0 2 0;
#X connect 1 1 10 0;
#X connect 2 0 3 0;
#X connect 3 0 2 1;
#X connect 3 0 6 0;
#X connect 3 2 2 1;
#X connect 4 0 5 0;
#X connect 5 0 7 0;
#X connect 6 0 4 0;
#X connect 7 0 8 0;
#X connect 8 0 9 0;
#X connect 9 0 10 1;
#X connect 9 1 8 1;
#X connect 10 0 46 0;
#X connect 13 0 12 0;
#X connect 13 0 64 0;
#X connect 13 0 65 0;
#X connect 14 0 43 0;
#X connect 15 0 42 0;
#X connect 16 0 15 0;
#X connect 17 0 16 1;
#X connect 18 0 22 0;
#X connect 19 0 21 0;
#X connect 20 0 19 0;
#X connect 21 1 49 0;
#X connect 22 0 20 0;
#X connect 23 0 17 0;
#X connect 23 1 16 0;
#X connect 23 2 18 0;
#X connect 23 3 29 0;
#X connect 24 0 29 1;
#X connect 26 0 29 1;
#X connect 27 0 25 0;
#X connect 27 0 16 1;
#X connect 27 0 31 0;
#X connect 28 0 18 1;
#X connect 28 1 26 0;
#X connect 28 2 27 0;
#X connect 28 3 35 0;
#X connect 29 0 24 0;
#X connect 29 0 30 0;
#X connect 30 0 31 0;
#X connect 30 1 25 0;
#X connect 34 0 35 0;
#X connect 35 0 33 0;
#X connect 35 0 52 0;
#X connect 38 0 41 1;
#X connect 39 0 40 1;
#X connect 40 0 1 0;
#X connect 41 0 40 0;
#X connect 42 0 14 0;
#X connect 42 1 8 1;
#X connect 42 1 2 1;
#X connect 43 0 41 0;
#X connect 43 1 44 0;
#X connect 45 0 51 0;
#X connect 46 0 45 0;
#X connect 47 0 46 1;
#X connect 48 0 45 1;
#X connect 49 0 46 0;
#X connect 49 1 44 0;
#X connect 50 0 33 0;
#X connect 51 0 13 0;
#X connect 51 1 11 0;
#X connect 51 2 54 0;
#X connect 53 0 23 0;
#X connect 55 0 52 0;
#X connect 56 0 28 0;
#X connect 56 1 32 0;
#X connect 56 2 32 1;
#X connect 56 3 0 0;
#X connect 57 0 53 0;
#X connect 58 0 56 0;
#X connect 59 0 56 0;
#X connect 60 0 56 0;
