#N canvas 375 176 821 555 12;
#X declare -path else;
#X obj 643 25 declare -path else;
#X text 499 209 [bicoeff];
#X msg 658 92 allpass;
#X msg 675 134 bandpass;
#X msg 696 197 highpass;
#X msg 690 176 lowpass;
#X msg 683 155 resonant;
#X msg 667 113 bandstop;
#X msg 717 252 highshelf;
#X msg 706 229 lowshelf;
#X msg 726 276 eq;
#X obj 656 338 s \$0-type;
#X obj 127 238 bicoeff 450 150 peaking;
#X obj 127 208 r \$0-type;
#X obj 47 329 noise~;
#X obj 47 424 biquad~;
#X obj 47 458 out~;
#X text 649 61 set filter type;
#X text 667 394 see also:;
#X obj 675 421 bicoeff2;
#X text 665 456 Same functionality as [bicoeff] but without the GUI., f 18;
#X connect 2 0 11 0;
#X connect 3 0 11 0;
#X connect 4 0 11 0;
#X connect 5 0 11 0;
#X connect 6 0 11 0;
#X connect 7 0 11 0;
#X connect 8 0 11 0;
#X connect 9 0 11 0;
#X connect 10 0 11 0;
#X connect 12 0 15 0;
#X connect 13 0 12 0;
#X connect 14 0 15 0;
#X connect 15 0 16 0;
#X connect 15 0 16 1;
