#N canvas 650 34 466 474 12;
#X obj 148 280 out~;
#X obj 148 244 bob~;
#X obj 160 146 nbx 5 14 -1e+37 1e+37 0 0 empty empty empty 0 -8 0 10 #dcdcdc #000000 #000000 0 256;
#X obj 173 198 nbx 5 14 0 4 0 0 empty empty empty 0 -8 0 10 #dcdcdc #000000 #000000 0 256;
#X obj 163 121 hsl 128 15 100 5000 0 0 empty cutoff empty -2 -8 0 10 #dcdcdc #000000 #000000 0 1;
#X obj 176 177 hsl 128 15 0 4 0 0 empty Q empty -2 -8 0 10 #dcdcdc #000000 #000000 0 1;
#X text 104 93 Input;
#X text 191 120 Frequency;
#X text 198 176 Q/Resonance;
#X obj 148 93 noise~;
#X connect 1 0 0 0;
#X connect 2 0 1 1;
#X connect 3 0 1 2;
#X connect 4 0 2 0;
#X connect 5 0 3 0;
#X connect 9 0 1 0;
