#N canvas 512 28 928 577 12;
#N canvas 272 55 344 273 cutoff 0;
#X obj 109 225 outlet;
#X obj 101 101 cnv 15 150 65 empty empty Roll-off(Hz) 13 16 0 16 #000000 #fcfcfc 0;
#X obj 109 132 nbx 7 25 0 22050 0 0 \$0-freq \$0-freq-set empty 0 -8 0 19 #807060 #fcfcfc #000000 0 256;
#X obj 122 191 r \$0-Hz;
#X connect 2 0 0 0;
#X connect 3 0 0 0;
#X coords 0 -1 1 1 152 67 2 100 100;
#X restore 132 52 pd cutoff;
#X obj 86 24 noise~;
#X obj 107 162 out~;
#X obj 82 422 ui.spectroscope~ @size 766 137 @receive "(null)" @send "(null)" @nosave 0 @pinned 0 @background_color 0.93 0.93 0.93 1 @border_color 0.6 0.6 0.6 1 @label_color 0 0 0 1 @active_color 0 0.75 1 1 @scale_color 0.6 0.6 0.6 1 @fontname "Helvetica" @fontweight "normal" @fontslant "roman" @fontsize 11 @label "(null)" @label_inner 0 @label_side "top" @label_align "left" @label_valign "top" @label_margins 0 0 @refresh 100 @log_scale 1;
#X obj 82 283 ui.spectroscope~ @size 766 137 @receive "(null)" @send "(null)" @nosave 0 @pinned 0 @background_color 0.93 0.93 0.93 1 @border_color 0.6 0.6 0.6 1 @label_color 0 0 0 1 @active_color 0 0.75 1 1 @scale_color 0.6 0.6 0.6 1 @fontname "Helvetica" @fontweight "normal" @fontslant "roman" @fontsize 11 @label "(null)" @label_inner 0 @label_side "top" @label_align "left" @label_valign "top" @label_margins 0 0 @refresh 100 @log_scale 1;
#X text 17 344 ORIGINAL;
#X text 18 483 FILTERED;
#X obj 107 129 hip~;
#X connect 0 0 7 1;
#X connect 1 0 4 0;
#X connect 1 0 7 0;
#X connect 7 0 2 0;
#X connect 7 0 3 0;
