#N canvas 381 39 945 623 12;
#X obj 487 324 nbx 5 18 -1e+37 1e+37 0 0 empty empty Octave 68 10 0 12 #dcdcdc #000000 #000000 0 256;
#X floatatom 498 375 8 0 0 0 - - - 0;
#X text 558 375 Cents;
#X obj 498 351 * 1200;
#X obj 357 173 nbx 5 14 -1e+37 1e+37 0 0 empty empty empty 0 -8 0 10 #dcdcdc #000000 #000000 0 256;
#X floatatom 487 435 0 0 0 0 - - - 0;
#X obj 487 407 expr 1 / (2 * sinh($f1 * ln(2)/2));
#X text 471 435 Q;
#X obj 487 463 expr asinh(1/(2*$f1)) * 2/ln(2);
#X floatatom 487 489 0 0 0 0 - - - 0;
#X text 427 490 BW (oct);
#X text 466 324 bw;
#X obj 482 103 v f2;
#X obj 357 125 expr sqrt(f1*f2) \; log(f2/f1) / log(2);
#X obj 357 79 t b f;
#X obj 389 100 v f1;
#X obj 357 211 expr $f1 / (f2-f1);
#X floatatom 357 249 0 0 0 0 - - - 0;
#X text 356 273 Q = f0 / (f2-f1);
#X text 416 171 Hz;
#X floatatom 450 60 5 0 0 0 F2 - - 0;
#X floatatom 357 58 5 0 0 0 F1 - - 0;
#X obj 450 81 t b f;
#X text 337 171 F0;
#X connect 0 0 3 0;
#X connect 0 0 6 0;
#X connect 3 0 1 0;
#X connect 4 0 16 0;
#X connect 5 0 8 0;
#X connect 6 0 5 0;
#X connect 8 0 9 0;
#X connect 13 0 4 0;
#X connect 13 1 0 0;
#X connect 14 0 13 0;
#X connect 14 1 15 0;
#X connect 16 0 17 0;
#X connect 20 0 22 0;
#X connect 21 0 14 0;
#X connect 22 0 13 0;
#X connect 22 1 12 0;
