#N canvas 246 30 982 625 12;
#X obj 145 123 nbx 5 14 1 1e+37 0 0 \$0-q q-set empty 0 -8 0 10 #dcdcdc #000000 #000000 0 256;
#X obj 102 95 nbx 5 14 -1e+37 1e+37 0 0 \$0-freq freq-set empty 0 -8 0 10 #dcdcdc #000000 #000000 0 256;
#X obj 78 40 noise~;
#X obj 105 66 hsl 200 15 100 22050 1 0 empty freq-slider-set empty -2 -8 0 10 #dcdcdc #000000 #000000 0 1;
#X text 204 122 Q;
#X text 158 95 Hz;
#X obj 102 121 sig~;
#X obj 80 164 vcf~ 10;
#X text 136 65 Resonant Frequency;
#X obj 80 195 output~;
#X obj 82 422 ui.spectroscope~ @size 766 137 @receive "(null)" @send "(null)" @nosave 0 @pinned 0 @background_color 0.93 0.93 0.93 1 @border_color 0.6 0.6 0.6 1 @label_color 0 0 0 1 @active_color 0 0.75 1 1 @scale_color 0.6 0.6 0.6 1 @fontname "Helvetica" @fontweight "normal" @fontslant "roman" @fontsize 11 @label "(null)" @label_inner 0 @label_side "top" @label_align "left" @label_valign "top" @label_margins 0 0 @refresh 100 @log_scale 1;
#X obj 82 283 ui.spectroscope~ @size 766 137 @receive "(null)" @send "(null)" @nosave 0 @pinned 0 @background_color 0.93 0.93 0.93 1 @border_color 0.6 0.6 0.6 1 @label_color 0 0 0 1 @active_color 0 0.75 1 1 @scale_color 0.6 0.6 0.6 1 @fontname "Helvetica" @fontweight "normal" @fontslant "roman" @fontsize 11 @label "(null)" @label_inner 0 @label_side "top" @label_align "left" @label_valign "top" @label_margins 0 0 @refresh 100 @log_scale 1;
#X text 17 344 ORIGINAL;
#X text 18 483 FILTERED;
#X connect 0 0 7 2;
#X connect 1 0 6 0;
#X connect 2 0 7 0;
#X connect 2 0 11 0;
#X connect 3 0 1 0;
#X connect 6 0 7 1;
#X connect 7 0 9 0;
#X connect 7 0 10 0;
#X connect 7 1 9 1;
