#N canvas 8 25 1358 839 12;
#X floatatom 752 181 5 0 0 0 - - - 0;
#X floatatom 839 194 5 0 0 0 - - - 0;
#X obj 750 211 print;
#X msg 815 61 0;
#X obj 819 219 f;
#X obj 809 195 bng 19 250 50 0 empty empty empty 0 -10 0 12 #fcfcfc #000000 #000000;
#X obj 227 94 until;
#X msg 227 121 1;
#X obj 531 95 until;
#X obj 228 45 -;
#X msg 533 128 0;
#X msg 535 161 add2 \$1;
#X msg 540 222 0 0 0 0 0 0 0 0;
#X msg 123 172 set;
#X msg 227 148 add2 \$1;
#X floatatom 530 67 5 0 0 0 - - - 0;
#X msg 227 223 1 1 1 1 1;
#X obj 192 313 until;
#X obj 205 506 list store;
#X obj 226 280 t b b l;
#X obj 192 358 f;
#X obj 230 359 + 1;
#X msg 249 313 0, f 2;
#X msg 192 479 get \$1 1;
#X obj 192 445 t f f;
#X obj 752 110 expr int($f1 / $f2) \; $f1 % $f2 \; $f3;
#X floatatom 904 195 5 0 0 0 - - - 0;
#X obj 892 246 f;
#X obj 882 222 bng 19 250 50 0 empty empty empty 0 -10 0 12 #fcfcfc #000000 #000000;
#X obj 893 277 t f f;
#X msg 752 76 3;
#X msg 890 76 5;
#X obj 441 500 list store;
#X msg 442 474 get \$1 1;
#X msg 225 606 append \$1;
#X obj 227 651 list store;
#X obj 242 629 bng 19 250 50 0 empty empty empty 0 -10 0 12 #fcfcfc #000000 #000000;
#X obj 229 741 print ones;
#X msg 483 605 append \$1;
#X obj 484 653 list store;
#X obj 494 629 bng 19 250 50 0 empty empty empty 0 -10 0 12 #fcfcfc #000000 #000000;
#X msg 228 13 13;
#X msg 275 12 5;
#X obj 327 625 bng 19 250 50 0 empty empty empty 0 -10 0 12 #fcfcfc #000000 #000000;
#X msg 145 279 13;
#X obj 38 356 bng 19 250 50 0 empty empty empty 0 -10 0 12 #fcfcfc #000000 #000000;
#X obj 469 574 list store;
#X msg 468 549 get \$1 1;
#X obj 202 766 print iterator_ones;
#X obj 246 680 list length;
#X floatatom 249 704 5 0 0 0 - - - 0;
#X obj 438 733 print iterator_zero;
#X obj 191 415 moses 5;
#X obj 602 456 f;
#X floatatom 602 481 5 0 0 0 - - - 0;
#X msg 647 426 0;
#X obj 640 457 + 2;
#X obj 486 704 print zero;
#X obj 689 633 text;
#X obj 755 500 list-fifo;
#X connect 0 0 2 0;
#X connect 1 0 4 1;
#X connect 3 0 25 1;
#X connect 3 0 25 0;
#X connect 4 0 25 1;
#X connect 4 0 25 2;
#X connect 5 0 4 0;
#X connect 6 0 7 0;
#X connect 7 0 14 0;
#X connect 8 0 10 0;
#X connect 9 0 15 0;
#X connect 10 0 11 0;
#X connect 11 0 12 0;
#X connect 12 0 32 1;
#X connect 12 0 46 1;
#X connect 13 0 16 0;
#X connect 13 0 12 0;
#X connect 14 0 16 0;
#X connect 15 0 8 0;
#X connect 16 0 19 0;
#X connect 17 0 20 0;
#X connect 18 0 34 0;
#X connect 18 0 48 0;
#X connect 18 1 17 1;
#X connect 19 1 22 0;
#X connect 19 2 18 1;
#X connect 20 0 21 0;
#X connect 20 0 52 0;
#X connect 21 0 20 1;
#X connect 22 0 20 1;
#X connect 23 0 18 0;
#X connect 24 0 33 0;
#X connect 24 1 23 0;
#X connect 25 0 0 0;
#X connect 25 1 1 0;
#X connect 25 2 26 0;
#X connect 26 0 27 1;
#X connect 27 0 29 0;
#X connect 28 0 27 0;
#X connect 29 0 25 0;
#X connect 30 0 25 0;
#X connect 31 0 25 1;
#X connect 31 0 25 2;
#X connect 32 0 34 0;
#X connect 32 0 51 0;
#X connect 33 0 32 0;
#X connect 34 0 35 0;
#X connect 35 0 37 0;
#X connect 35 0 49 0;
#X connect 36 0 35 0;
#X connect 38 0 39 0;
#X connect 39 0 57 0;
#X connect 40 0 39 0;
#X connect 41 0 9 0;
#X connect 42 0 9 1;
#X connect 42 0 6 0;
#X connect 43 0 35 1;
#X connect 43 0 39 1;
#X connect 44 0 17 0;
#X connect 46 0 38 0;
#X connect 46 0 51 0;
#X connect 47 0 46 0;
#X connect 49 0 50 0;
#X connect 52 0 24 0;
#X connect 52 1 47 0;
#X connect 53 0 54 0;
#X connect 53 0 56 0;
#X connect 55 0 53 1;
#X connect 56 0 53 1;
