#N canvas 53 25 846 823 12;
#N canvas 0 22 450 300 (subpatch) 0;
#X array audio 180800 float 2;
#X coords 0 1 180800 -1 400 200 1 0 0;
#X restore 346 19 graph;
#X obj 119 75 soundfiler;
#X obj 119 123 nbx 10 14 -1e+37 1e+37 0 0 empty empty samples 0 -8 0 10 #c6feff #000000 #000000 0 256;
#X obj 70 688 line~;
#X obj 166 467 nbx 5 14 -1e+37 1e+37 0 0 empty empty msec 0 -8 0 10 #ffffff #000000 #000000 0 256;
#X obj 285 525 hsl 128 15 0 2 0 0 empty empty speed -2 -8 0 10 #feffc6 #000000 #000000 0 1;
#X obj 349 277 hsl 400 10 0 1 0 0 empty empty stop -2 -8 0 10 #e0c4fc #000000 #000000 0 1;
#X obj 346 288 nbx 5 14 -1e+37 1e+37 0 0 empty empty empty 0 -8 0 10 #c4c4fc #000000 #000000 0 256;
#X obj 347 233 hsl 400 10 0 1 0 0 empty empty start -2 -8 0 10 #c6ffc7 #000000 #000000 0 1;
#X obj 344 245 nbx 5 14 -1e+37 1e+37 0 0 empty empty empty 0 -8 0 10 #c6ffc7 #000000 #000000 0 256;
#X obj 71 635 pack f f f, f 39;
#X msg 71 661 \$1 \, \$2 \$3;
#X obj 71 279 nbx 10 14 -1e+37 1e+37 0 0 empty empty start 0 -8 0 10 #ffffff #000000 #000000 0 256;
#X obj 203 336 nbx 10 14 -1e+37 1e+37 0 0 empty empty stop 0 -8 0 10 #ffffff #000000 #000000 0 256;
#X obj 166 401 expr $f2 - $f1;
#X obj 71 214 t f f, f 19;
#X obj 205 353 t f f, f 9;
#X obj 71 301 t f f, f 14;
#X msg 119 51 read -resize speech.wav audio;
#X obj 71 711 tabread4~ audio;
#X obj 71 739 output~;
#X obj 119 27 loadbang;
#X obj 71 122 bng 19 250 50 0 empty empty play! 0 -10 0 12 #ffc7c6 #000000 #000000;
#X obj 166 429 expr abs(int(($f1 / 44100) * 1000));
#X obj 282 545 nbx 5 14 -1e+37 1e+37 0 0 empty empty empty 0 -8 0 10 #fcfcfc #000000 #000000 0 256;
#X obj 166 566 expr int($f1*$f2);
#X obj 71 188 f;
#X obj 71 243 expr int($f1*$f2);
#X obj 203 302 expr int($f1*$f2);
#X msg 282 492 1;
#X listbox 841 576 20 0 0 0 - - - 0;
#X connect 1 0 2 0;
#X connect 2 0 26 1;
#X connect 3 0 19 0;
#X connect 4 0 25 0;
#X connect 5 0 24 0;
#X connect 6 0 7 0;
#X connect 7 0 28 1;
#X connect 8 0 9 0;
#X connect 8 0 27 1;
#X connect 10 0 11 0;
#X connect 11 0 3 0;
#X connect 12 0 17 0;
#X connect 13 0 16 0;
#X connect 14 0 23 0;
#X connect 15 0 27 0;
#X connect 15 1 28 0;
#X connect 16 0 10 1;
#X connect 16 1 14 1;
#X connect 17 0 10 0;
#X connect 17 1 14 0;
#X connect 18 0 1 0;
#X connect 19 0 20 0;
#X connect 19 0 20 1;
#X connect 21 0 18 0;
#X connect 22 0 26 0;
#X connect 23 0 4 0;
#X connect 24 0 25 1;
#X connect 25 0 10 2;
#X connect 26 0 15 0;
#X connect 27 0 12 0;
#X connect 28 0 13 0;
#X connect 29 0 5 0;
