#N canvas 120 25 1029 680 12;
#X obj 403 352 readsf~, f 13;
#X obj 236 208 writesf~;
#X msg 403 189 stop;
#X obj 694 451 writesf~;
#X msg 651 431 stop;
#X obj 491 544 readsf~;
#X obj 537 572 bng 15 250 50 0 empty empty empty 17 7 0 10 #fcfcfc #000000 #000000;
#X msg 694 391 open record-B.wav \, start;
#X msg 236 100 open record-A.wav \, start;
#X msg 403 321 open record-A.wav \, start;
#X msg 491 513 open record-B.wav \, start;
#X obj 241 184 r~ audio.input;
#X obj 15 194 s~ audio.input;
#X obj 694 209 bng 15 250 50 0 empty empty empty 17 7 0 10 #fcfcfc #000000 #000000;
#X obj 537 593 s stop.Rec.A;
#X obj 404 128 r stop.Rec.A;
#X obj 379 431 s start.Rec.A;
#X obj 491 416 bng 15 250 50 0 empty empty empty 17 7 0 10 #fcfcfc #000000 #000000;
#X obj 236 35 r start.Rec.A;
#X obj 403 398 throw~ audio;
#X obj 491 642 throw~ audio;
#X obj 14 265 catch~ audio;
#X obj 403 262 bng 15 250 50 0 empty empty empty 17 7 0 10 #fcfcfc #000000 #000000;
#X obj 403 292 del 5;
#X obj 491 484 del 5;
#X obj 403 374 freeverb~;
#X obj 491 616 freeverb~;
#X obj 15 120 readsf~;
#X obj 15 155 freeverb~;
#X obj 15 221 throw~ audio;
#X obj 300 393 s~ player.A;
#X obj 699 418 r~ player.A;
#X obj 399 635 s~ player.B;
#X obj 245 153 r~ player.B;
#X msg 15 91 open speech.wav \, 1;
#X obj 14 306 out~;
#X obj 15 64 bng 19 250 50 0 empty empty 2.\ Playback\ audio 0 -10 0 12 #ffc7c6 #000000 #000000;
#X obj 236 78 bng 19 250 50 0 empty empty 1.\ Start\ recording 10 -10 0 12 #c6feff #000000 #000000;
#X obj 404 166 bng 19 250 50 0 empty empty 3.\ Stop\ recording 10 -10 0 12 #e3c6ff #000000 #000000;
#X connect 0 0 25 0;
#X connect 0 1 17 0;
#X connect 2 0 1 0;
#X connect 2 0 13 0;
#X connect 2 0 22 0;
#X connect 4 0 3 0;
#X connect 5 0 26 0;
#X connect 5 1 6 0;
#X connect 6 0 14 0;
#X connect 7 0 3 0;
#X connect 8 0 1 0;
#X connect 9 0 0 0;
#X connect 10 0 5 0;
#X connect 11 0 1 0;
#X connect 13 0 7 0;
#X connect 15 0 38 0;
#X connect 17 0 4 0;
#X connect 17 0 16 0;
#X connect 17 0 24 0;
#X connect 18 0 37 0;
#X connect 21 0 35 0;
#X connect 21 0 35 1;
#X connect 22 0 23 0;
#X connect 23 0 9 0;
#X connect 24 0 10 0;
#X connect 25 0 19 0;
#X connect 25 0 30 0;
#X connect 26 0 20 0;
#X connect 26 0 32 0;
#X connect 27 0 28 0;
#X connect 28 0 12 0;
#X connect 28 0 29 0;
#X connect 31 0 3 0;
#X connect 33 0 1 0;
#X connect 34 0 27 0;
#X connect 36 0 34 0;
#X connect 37 0 8 0;
#X connect 38 0 2 0;
