#N canvas 9 33 1425 832 10;
#X declare -lib ceammc;
#N canvas 0 22 450 300 (subpatch) 0;
#X array sampler 180800 float 2;
#X coords 0 1 180800 -1 600 100 1 0 0;
#X restore 314 526 graph;
#X obj 314 104 soundfiler;
#X obj 36 568 output~;
#X floatatom 314 227 10 0 0 0 - - - 0;
#X floatatom 51 453 12 0 0 0 - - - 0;
#X obj 36 479 *~;
#X obj 395 159 samplerate~;
#X floatatom 314 178 12 0 0 0 - - - 0;
#X floatatom 314 129 12 0 0 0 - - - 0;
#X obj 315 526 hsl 600 100 0 1 0 0 empty empty empty -2 -8 0 10 #fcfcfc #000000 #000000 0 1;
#X obj 36 338 phasor~;
#X obj 36 242 *;
#X floatatom 395 180 10 0 0 0 - - - 0;
#X floatatom 36 60 10 0 0 0 - - - 0;
#X floatatom 36 266 10 0 0 0 - - - 0;
#X obj 51 385 nbx 5 14 -1e+37 1e+37 0 0 empty empty empty 0 -8 0 10 #fcfcfc #000000 #000000 0 256;
#X msg 36 153 \$1 \$2;
#X obj 36 129 pack f f;
#X floatatom 81 112 10 0 0 2 - - - 0;
#X obj 36 177 line;
#X obj 395 138 loadbang;
#X obj 314 202 expr $f2 / $f1;
#X floatatom 51 525 12 0 0 0 - - - 0;
#X msg 314 79 read -resize speech.wav sampler;
#X obj 36 544 tabread4~ sampler;
#X obj 51 502 unsig~ 10;
#X obj 322 150 s samples;
#X obj 51 407 s position;
#X obj 51 429 r samples;
#X obj 312 487 r position;
#X obj 1009 11 declare -lib ceammc;
#X obj 51 360 unsig~ 10;
#X obj 39 21 hsl 136 16 -5 5 0 0 empty empty speed-direction -2 -8 0 10 #c7c6ff #000000 #000000 0 1;
#X obj 36 40 i;
#X obj 84 92 hsl 136 16 0 5000 0 0 empty empty Interpolation-time -2 -8 0 10 #c6ffc7 #000000 #000000 0 1;
#X floatatom 75 319 10 0 0 2 - - - 0;
#X obj 78 299 hsl 136 16 0 0.999 0 0 empty empty Phase\ (Table\ Position) -2 -8 0 10 #feffc6 #000000 #000000 0 1;
#X obj 314 56 bng 16 250 50 0 empty empty Load\ audio\ sample 0 -8 0 10 #ffc7c6 #000000 #000000;
#X connect 1 0 8 0;
#X connect 3 0 11 1;
#X connect 4 0 5 1;
#X connect 5 0 25 0;
#X connect 5 0 24 0;
#X connect 6 0 12 0;
#X connect 7 0 21 0;
#X connect 8 0 7 0;
#X connect 8 0 26 0;
#X connect 10 0 5 0;
#X connect 10 0 31 0;
#X connect 11 0 14 0;
#X connect 12 0 21 1;
#X connect 13 0 17 0;
#X connect 14 0 10 0;
#X connect 15 0 27 0;
#X connect 16 0 19 0;
#X connect 17 0 16 0;
#X connect 18 0 17 1;
#X connect 19 0 11 0;
#X connect 20 0 6 0;
#X connect 21 0 3 0;
#X connect 23 0 1 0;
#X connect 24 0 2 0;
#X connect 24 0 2 1;
#X connect 25 0 22 0;
#X connect 28 0 4 0;
#X connect 29 0 9 0;
#X connect 31 0 15 0;
#X connect 32 0 33 0;
#X connect 33 0 13 0;
#X connect 34 0 18 0;
#X connect 35 0 10 1;
#X connect 36 0 35 0;
#X connect 37 0 23 0;
