#N canvas 2 29 991 694 12;
#X obj 147 226 t b f;
#X obj 146 282 tabwrite~ phasor;
#X obj 79 234 t f b;
#X msg 150 90 0;
#X msg 156 112 0.25;
#X msg 161 135 0.5;
#X msg 164 158 0.75;
#X floatatom 147 201 5 0 1 0 - - -;
#X text 19 280 Running phase =>, f 8;
#X text 16 312 waveform function, f 8;
#X text 6 207 Frequency;
#X msg 80 170 300;
#X obj 79 264 phasor~;
#X obj 145 338 tabwrite~ wave;
#X msg 71 147 -300;
#X obj 29 550 cnv 15 448 110 empty empty empty 20 12 0 14 -228856 -66577
0;
#N canvas 0 22 450 300 (subpatch) 0;
#X array wave 441 float 0;
#X coords 0 1 440 -1 450 112 1 0 0;
#X restore 28 549 graph;
#X text 15 542 1;
#X text 9 650 -1;
#X obj 31 407 cnv 15 448 110 empty empty empty 20 12 0 14 -228856 -66577
0;
#N canvas 0 22 450 300 (subpatch) 0;
#X array phasor 441 float 0;
#X coords 0 1 440 0 450 112 1;
#X restore 30 406 graph;
#X text 15 503 0;
#X text 13 401 1;
#X obj 659 309 cos~;
#X obj 659 285 phasor~ 440;
#X obj 576 295 osc~ 440;
#X text 640 295 =;
#X text 519 16 ¡La forma de onda es un coseno! El objeto [phasor ~]
determina la frecuencia de oscilación pero también puede establecer
diferentes fases iniciales. Seno y coseno son básicamente lo mismo
\, con una diferencia de fase inicial \, por lo que también podemos
lograr una función seno. Pero de todos modos \, la fase inicial no
afecta nuestra percepción de un tono puro.;
#X text 520 135 Pruebe este parche con diferentes fases iniciales.
Tenga en cuenta que el objeto fasor también acepta frecuencias negativas
\, lo que hace que la fase se ejecute en la dirección opuesta.;
#X text 520 222 Un [phasor~] conectado a [cos~] es la misma estructura
que el objeto [osc~].;
#X text 189 201 Phase;
#X text 18 22 Aquí tenemos [phasor ~] y [cos ~] como oscilador. El
objeto [cos ~] devuelve valores de amplitud entre -1 y 1 \, por lo
que sin un ajuste de ganancia tiene una amplitud máxima de 1;
#X floatatom 79 202 5 0 0 0 - - -;
#X obj 79 319 cos~;
#X connect 0 0 1 0;
#X connect 0 0 13 0;
#X connect 0 1 12 1;
#X connect 2 0 12 0;
#X connect 2 1 7 0;
#X connect 3 0 7 0;
#X connect 4 0 7 0;
#X connect 5 0 7 0;
#X connect 6 0 7 0;
#X connect 7 0 0 0;
#X connect 11 0 32 0;
#X connect 12 0 1 0;
#X connect 12 0 33 0;
#X connect 14 0 32 0;
#X connect 24 0 23 0;
#X connect 32 0 2 0;
#X connect 33 0 13 0;
