#N canvas 149 129 501 712 12;
#X obj 13 120 nbx 5 14 -1e+37 1e+37 0 0 empty empty empty 0 -8 0 10 #dcdcdc #000000 #000000 0 256;
#X obj 13 181 nbx 5 14 -1e+37 1e+37 0 0 empty empty empty 0 -8 0 10 #dcdcdc #000000 #000000 0 256;
#X obj 13 148 expr 1000 / $f1;
#X obj 164 149 expr 1000 / $f1;
#X obj 164 182 nbx 5 14 -1e+37 1e+37 0 0 hz empty empty 0 -8 0 10 #dcdcdc #000000 #000000 0 256;
#X obj 164 121 nbx 5 14 -1e+37 1e+37 0 0 hz empty empty 0 -8 0 10 #dcdcdc #000000 #000000 0 256;
#X text 226 121 ms;
#X text 74 181 ms;
#X text 73 118 Hz;
#X text 224 180 Hz;
#X obj 23 311 v sr;
#X obj 74 274 nbx 5 14 -1e+37 1e+37 0 0 empty empty empty 0 -8 0 10 #dcdcdc #000000 #000000 0 256;
#X obj 74 334 nbx 8 14 -1e+37 1e+37 0 0 empty empty empty 0 -8 0 10 #dcdcdc #000000 #000000 0 256;
#X obj 74 301 expr sr / $f1;
#X obj 205 335 nbx 5 14 -1e+37 1e+37 0 0 hz empty empty 0 -8 0 10 #dcdcdc #000000 #000000 0 256;
#X obj 205 274 nbx 5 14 -1e+37 1e+37 0 0 hz empty empty 0 -8 0 10 #dcdcdc #000000 #000000 0 256;
#X obj 205 301 expr sr / $f1;
#X obj 23 289 sr~;
#X text 77 254 Hz;
#X text 210 354 Hz;
#X text 55 354 period (samples);
#X text 199 254 period (samples);
#X text 7 381 Las unidades de velocidad angular necesitan un ángulo y una unidad de tiempo. Un ciclo por segundo define un ciclo completo (360 grados) como la unidad de ángulo y los segundos como la unidad de tiempo. Othe unidades son posibles. El ángulo puede estar en radianes \, por ejemplo \, y la unidad de tiempo puede ser la de una muestra. Esto nos da la unidad "radianes por muestra".;
#X obj 39 585 nbx 7 14 -1e+37 1e+37 0 0 hz empty empty 0 -8 0 10 #dcdcdc #000000 #000000 0 256;
#X obj 41 634 nbx 8 14 -1e+37 1e+37 0 0 empty empty empty 0 -8 0 10 #dcdcdc #000000 #000000 0 256;
#X text 116 690 Hz;
#X obj 41 690 nbx 7 14 -1e+37 1e+37 0 0 empty empty empty 0 -8 0 10 #dcdcdc #000000 #000000 0 256;
#X obj 42 566 hsl 128 15 0 22050 0 0 slider empty empty -2 -8 0 10 #dcdcdc #000000 #000000 0 1;
#X obj 41 664 expr $f1 * sr / (2*pi);
#X obj 41 606 expr $f1 * 2*pi / sr;
#X text 112 583 Hz;
#X text 125 628 Radians per sample, f 10;
#X text 10 9 ¡La frecuencia se presentó aquí como "velocidad angular"! Una unidad de medida es hertz \, que es lo mismo que "ciclo por segundo". Una frecuencia también determina un período de oscilación \, que es el inverso de la frecuencia.;
#X text 9 68 Entonces 100 Hz nos da un período de 0.01 segundo (o 10 ms). A continuación convertimos Hz a ms y viceversa con la misma fórmula.;
#X text 6 207 Otra medida de tiempo para el período es la cantidad de muestras \, y necesita la frecuencia de muestreo para convertirla de la siguiente manera.;
#X text 5 484 Para convertir Hz a radianes por muestra \, debe multiplicar por 2pi y dividir por la frecuencia de muestreo. Vea a continuación la conversión hacia y desde y también los objetos [hz2rad] y [rad2hz] de ELSE que realizan esta conversión.;
#X obj 405 607 loadbang;
#X obj 405 633 pi;
#X obj 405 669 value pi;
#X connect 0 0 2 0;
#X connect 2 0 1 0;
#X connect 3 0 4 0;
#X connect 5 0 3 0;
#X connect 11 0 13 0;
#X connect 13 0 12 0;
#X connect 15 0 16 0;
#X connect 16 0 14 0;
#X connect 17 0 10 0;
#X connect 23 0 29 0;
#X connect 24 0 28 0;
#X connect 27 0 23 0;
#X connect 28 0 26 0;
#X connect 29 0 24 0;
#X connect 36 0 37 0;
#X connect 37 0 38 0;
