#N canvas 105 40 1249 829 12;
#X obj 227 94 until;
#X msg 227 129 1;
#X obj 531 95 until;
#X obj 228 45 -;
#X msg 533 128 0;
#X msg 537 254 0 \\\; 0 \\\; 0 \\\; 0 \\\; 0 \\\; 0 \\\; 0 \\\; 0 \\\;;
#X floatatom 530 67 5 0 0 0 - - - 0;
#X msg 228 13 13;
#X msg 275 12 5;
#X obj 776 341 list-fifo;
#X obj 985 256 print;
#X obj 1162 143 bng 19 250 50 0 empty empty empty 0 -10 0 12 #fcfcfc #000000 #000000;
#X msg 901 70 5 6 \\\; 7 8 \\\;;
#X msg 988 141 set 1 2 \\\; 3 4 \\\; 9 \\\;;
#X msg 224 199 add2 \$1 \\\;;
#X msg 224 259 1 \\\; 1 \\\; 1 \\\; 1 \\\; 1 \\\;;
#X obj 180 339 list append;
#X msg 157 311 set;
#X obj 180 367 list trim;
#X msg 535 161 add2 \$1 \\\;;
#X obj 501 355 list append;
#X msg 478 327 set;
#X obj 502 383 list trim;
#X msg 130 233 set;
#X obj 989 183 text define;
#X obj 181 397 text define -k A;
#A set 1 \; 1 \; 1 \; 1 \; 1 \;;
#X obj 503 409 text define -k B;
#A set 0 \; 0 \; 0 \; 0 \; 0 \; 0 \; 0 \; 0 \;;
#X floatatom 159 577 5 0 0 0 - - - 0;
#X obj 159 607 text get A;
#X floatatom 513 607 5 0 0 0 - - - 0;
#X obj 513 635 text get A;
#X obj 513 663 print;
#X obj 157 734 text define -k euklid;
#A set;
#X obj 160 475 f;
#X obj 197 474 + 1;
#X obj 161 447 until;
#X msg 120 416 13;
#X msg 225 442 0;
#X obj 160 531 t f f;
#X obj 360 592 text get B;
#X obj 157 685 print A;
#X obj 360 668 print B;
#X obj 161 506 moses 5;
#X connect 0 0 1 0;
#X connect 1 0 14 0;
#X connect 2 0 4 0;
#X connect 3 0 6 0;
#X connect 4 0 19 0;
#X connect 5 0 20 1;
#X connect 6 0 2 0;
#X connect 7 0 3 0;
#X connect 8 0 3 1;
#X connect 8 0 0 0;
#X connect 11 0 24 0;
#X connect 12 0 24 0;
#X connect 13 0 24 0;
#X connect 14 0 15 0;
#X connect 15 0 16 1;
#X connect 16 0 18 0;
#X connect 17 0 16 0;
#X connect 18 0 25 0;
#X connect 19 0 5 0;
#X connect 20 0 22 0;
#X connect 21 0 20 0;
#X connect 22 0 26 0;
#X connect 23 0 15 0;
#X connect 23 0 5 0;
#X connect 24 0 10 0;
#X connect 27 0 28 0;
#X connect 28 0 40 0;
#X connect 29 0 30 0;
#X connect 30 0 31 0;
#X connect 33 0 34 0;
#X connect 33 0 42 0;
#X connect 34 0 33 1;
#X connect 35 0 33 0;
#X connect 36 0 35 0;
#X connect 37 0 33 1;
#X connect 38 0 39 0;
#X connect 38 1 27 0;
#X connect 39 0 41 0;
#X connect 42 0 38 0;
#X connect 42 1 39 0;
